<svg width="44" height="44" viewBox="0 0 44 44" fill="none" xmlns="http://www.w3.org/2000/svg">
<g clip-path="url(#clip0_31_5185)">
<path d="M22.163 6.66157C21.5621 6.96904 21.0577 7.43642 20.7054 8.01222C20.3532 8.58802 20.1667 9.24989 20.1665 9.9249L20.1647 14.6641L16.4998 14.6659C16.0136 14.6659 15.5473 14.8591 15.2035 15.2029C14.8597 15.5467 14.6665 16.013 14.6665 16.4992V27.4992L14.6793 27.7137C14.7319 28.1597 14.9463 28.5709 15.2818 28.8693C15.6174 29.1677 16.0508 29.3325 16.4998 29.3326L20.1647 29.3307L20.1665 34.0736C20.1667 34.7987 20.3818 35.5074 20.7847 36.1103C21.1876 36.7131 21.7602 37.1829 22.4301 37.4604C23.1 37.7378 23.8371 37.8105 24.5483 37.669C25.2594 37.5276 25.9127 37.1785 26.4255 36.6659L38.4998 24.5916C39.1872 23.904 39.5734 22.9715 39.5734 21.9992C39.5734 21.027 39.1872 20.0945 38.4998 19.4069L26.4255 7.33257C25.9127 6.81948 25.2593 6.47002 24.5479 6.32839C23.8365 6.18675 23.099 6.25932 22.4288 6.5369L22.163 6.66157Z" fill="#CCD0D6"/>
<path d="M5.49984 14.666C5.94888 14.6661 6.38229 14.8309 6.71785 15.1293C7.05342 15.4277 7.2678 15.8389 7.32034 16.2848L7.33317 16.4993V27.4993C7.33265 27.9666 7.15373 28.4161 6.83295 28.7559C6.51217 29.0956 6.07376 29.3001 5.60728 29.3275C5.1408 29.3549 4.68147 29.2031 4.32314 28.9032C3.96481 28.6033 3.73453 28.1779 3.67934 27.7138L3.6665 27.4993V16.4993C3.6665 16.0131 3.85966 15.5468 4.20347 15.203C4.54729 14.8592 5.01361 14.666 5.49984 14.666Z" fill="#CCD0D6"/>
<path d="M10.9998 14.666C11.4489 14.6661 11.8823 14.8309 12.2179 15.1293C12.5534 15.4277 12.7678 15.8389 12.8203 16.2848L12.8332 16.4993V27.4993C12.8327 27.9666 12.6537 28.4161 12.3329 28.7559C12.0122 29.0956 11.5738 29.3001 11.1073 29.3275C10.6408 29.3549 10.1815 29.2031 9.82314 28.9032C9.46481 28.6033 9.23453 28.1779 9.17934 27.7138L9.1665 27.4993V16.4993C9.1665 16.0131 9.35966 15.5468 9.70348 15.203C10.0473 14.8592 10.5136 14.666 10.9998 14.666Z" fill="#CCD0D6"/>
</g>
<defs>
<clipPath id="clip0_31_5185">
<rect width="44" height="44" fill="white"/>
</clipPath>
</defs>
</svg>
