<svg width="44" height="44" viewBox="0 0 44 44" fill="none" xmlns="http://www.w3.org/2000/svg">
<g clip-path="url(#clip0_1291_19783)">
<path d="M17.5743 7.33332L5.49994 19.4077C4.81255 20.0953 4.42639 21.0277 4.42639 22C4.42639 22.9723 4.81255 23.9047 5.49994 24.5923L17.5743 36.6667C18.087 37.1797 18.7405 37.5292 19.4519 37.6708C20.1633 37.8125 20.9008 37.7399 21.5709 37.4623L21.8368 37.3376C22.4377 37.0302 22.9421 36.5628 23.2944 35.987C23.6466 35.4112 23.8331 34.7493 23.8333 34.0743V29.3333H27.4999C27.9862 29.3333 28.4525 29.1402 28.7963 28.7963C29.1401 28.4525 29.3333 27.9862 29.3333 27.5V16.5L29.3204 16.2855C29.2679 15.8395 29.0535 15.4284 28.718 15.13C28.3824 14.8316 27.949 14.6667 27.4999 14.6667L23.8333 14.6648V9.92565C23.8331 9.20057 23.618 8.49181 23.2151 7.88897C22.8122 7.28613 22.2396 6.81629 21.5697 6.53883C20.8998 6.26137 20.1627 6.18876 19.4515 6.33018C18.7403 6.47159 18.0871 6.82068 17.5743 7.33332Z" fill="#4876EF"/>
<path d="M38.5001 14.666C38.9491 14.6661 39.3825 14.8309 39.7181 15.1293C40.0537 15.4277 40.268 15.8389 40.3206 16.2848L40.3334 16.4993V27.4993C40.3329 27.9666 40.154 28.4161 39.8332 28.7559C39.5124 29.0956 39.074 29.3001 38.6075 29.3275C38.141 29.3549 37.6817 29.2031 37.3234 28.9032C36.9651 28.6033 36.7348 28.1779 36.6796 27.7138L36.6667 27.4993V16.4993C36.6667 16.0131 36.8599 15.5468 37.2037 15.203C37.5475 14.8592 38.0139 14.666 38.5001 14.666Z" fill="#4876EF"/>
<path d="M33.0001 14.666C33.4491 14.6661 33.8825 14.8309 34.2181 15.1293C34.5537 15.4277 34.768 15.8389 34.8206 16.2848L34.8334 16.4993V27.4993C34.8329 27.9666 34.654 28.4161 34.3332 28.7559C34.0124 29.0956 33.574 29.3001 33.1075 29.3275C32.641 29.3549 32.1817 29.2031 31.8234 28.9032C31.4651 28.6033 31.2348 28.1779 31.1796 27.7138L31.1667 27.4993V16.4993C31.1667 16.0131 31.3599 15.5468 31.7037 15.203C32.0475 14.8592 32.5139 14.666 33.0001 14.666Z" fill="#4876EF"/>
</g>
<defs>
<clipPath id="clip0_1291_19783">
<rect width="44" height="44" fill="white"/>
</clipPath>
</defs>
</svg>
