<svg width="44" height="44" viewBox="0 0 44 44" fill="none" xmlns="http://www.w3.org/2000/svg">
<g clip-path="url(#clip0_1291_19788)">
<path d="M22.1631 6.66157C21.5622 6.96904 21.0578 7.43642 20.7055 8.01222C20.3533 8.58802 20.1668 9.24989 20.1666 9.9249L20.1648 14.6641L16.5 14.6659C16.0137 14.6659 15.5474 14.8591 15.2036 15.2029C14.8598 15.5467 14.6666 16.013 14.6666 16.4992V27.4992L14.6795 27.7137C14.732 28.1597 14.9464 28.5709 15.2819 28.8693C15.6175 29.1677 16.0509 29.3325 16.5 29.3326L20.1648 29.3307L20.1666 34.0736C20.1668 34.7987 20.3819 35.5074 20.7848 36.1103C21.1877 36.7131 21.7603 37.1829 22.4302 37.4604C23.1001 37.7378 23.8372 37.8105 24.5484 37.669C25.2596 37.5276 25.9128 37.1785 26.4256 36.6659L38.5 24.5916C39.1874 23.904 39.5735 22.9715 39.5735 21.9992C39.5735 21.027 39.1874 20.0945 38.5 19.4069L26.4256 7.33257C25.9129 6.81948 25.2594 6.47002 24.548 6.32839C23.8366 6.18675 23.0991 6.25932 22.429 6.5369L22.1631 6.66157Z" fill="#4876EF"/>
<path d="M5.49996 14.666C5.949 14.6661 6.38241 14.8309 6.71797 15.1293C7.05354 15.4277 7.26792 15.8389 7.32046 16.2848L7.33329 16.4993V27.4993C7.33277 27.9666 7.15385 28.4161 6.83307 28.7559C6.51229 29.0956 6.07388 29.3001 5.6074 29.3275C5.14093 29.3549 4.6816 29.2031 4.32327 28.9032C3.96494 28.6033 3.73465 28.1779 3.67946 27.7138L3.66663 27.4993V16.4993C3.66663 16.0131 3.85978 15.5468 4.2036 15.203C4.54741 14.8592 5.01373 14.666 5.49996 14.666Z" fill="#4876EF"/>
<path d="M11 14.666C11.449 14.6661 11.8824 14.8309 12.218 15.1293C12.5535 15.4277 12.7679 15.8389 12.8205 16.2848L12.8333 16.4993V27.4993C12.8328 27.9666 12.6538 28.4161 12.3331 28.7559C12.0123 29.0956 11.5739 29.3001 11.1074 29.3275C10.6409 29.3549 10.1816 29.2031 9.82327 28.9032C9.46494 28.6033 9.23465 28.1779 9.17946 27.7138L9.16663 27.4993V16.4993C9.16663 16.0131 9.35978 15.5468 9.7036 15.203C10.0474 14.8592 10.5137 14.666 11 14.666Z" fill="#4876EF"/>
</g>
<defs>
<clipPath id="clip0_1291_19788">
<rect width="44" height="44" fill="white"/>
</clipPath>
</defs>
</svg>
