<svg width="84" height="34" viewBox="0 0 84 34" fill="none" xmlns="http://www.w3.org/2000/svg">
<rect x="0.5" y="0.5" width="83" height="33" rx="5.5" fill="white"/>
<rect x="0.5" y="0.5" width="83" height="33" rx="5.5" stroke="#8A90AF"/>
<path d="M28.7162 16.568H26.7422V23.092H25.3002V10.436H26.7422V15.378H28.7162V16.568ZM22.8782 18.696C23.4802 18.64 24.0542 18.584 24.6142 18.514L24.6982 19.578C22.0802 20.026 19.1542 20.054 16.9562 20.054L16.8022 18.864H18.3562V12.872H17.1242V11.71H24.1102V12.872H22.8782V18.696ZM19.7562 18.836C20.3162 18.822 20.9042 18.808 21.4782 18.766V12.872H19.7562V18.836ZM40.2511 16.848H38.8091V10.422H40.2511V16.848ZM36.7091 13.698C36.7091 15.364 35.2951 16.54 33.3771 16.54C31.4871 16.54 30.0731 15.364 30.0731 13.698C30.0731 12.018 31.4871 10.842 33.3771 10.842C35.2951 10.842 36.7091 12.018 36.7091 13.698ZM31.4731 13.698C31.4731 14.706 32.2991 15.364 33.3771 15.364C34.4831 15.364 35.3091 14.706 35.3091 13.698C35.3091 12.69 34.4831 12.032 33.3771 12.032C32.2991 12.032 31.4731 12.69 31.4731 13.698ZM40.6291 21.79V22.924H31.9911V19.606H38.8231V18.556H31.9631V17.422H40.2511V20.67H33.4051V21.79H40.6291ZM51.744 14.468H49.182V13.278H51.744V10.436H53.186V19.844H51.744V14.468ZM49.406 17.856C48.048 17.352 47.068 16.344 46.522 15.056C45.962 16.47 44.912 17.59 43.456 18.15L42.686 17.03C44.66 16.316 45.752 14.552 45.752 12.676V11.206H47.222V12.704C47.222 14.384 48.286 16.064 50.176 16.736L49.406 17.856ZM53.48 21.664V22.84H44.954V18.85H46.41V21.664H53.48ZM66.2889 10.436V18.122H64.9169V14.818H63.5169V18.038H62.1729V10.674H63.5169V13.642H64.9169V10.436H66.2889ZM61.5429 17.226C60.0869 17.492 58.8969 17.534 56.9229 17.534H56.0689V11.332H60.9969V12.494H57.4689V13.824H60.8569V14.944H57.4689V16.358C59.0649 16.358 60.1569 16.274 61.3889 16.05L61.5429 17.226ZM57.7069 18.738H66.2889V23.092H64.8469V19.9H57.7069V18.738Z" fill="#8A90AF"/>
</svg>
