<svg width="24" height="24" viewBox="0 0 24 24" fill="none" xmlns="http://www.w3.org/2000/svg">
<path fill-rule="evenodd" clip-rule="evenodd" d="M2.70152 2C3.08896 2 3.40305 2.31408 3.40305 2.70152V18.6027C3.40305 19.768 4.34235 20.7073 5.50762 20.7073H21.4088C21.7963 20.7073 22.1104 21.0214 22.1104 21.4088C22.1104 21.7963 21.7963 22.1104 21.4088 22.1104H5.50762C3.56747 22.1104 2 20.5429 2 18.6027V2.70152C2 2.31408 2.31408 2 2.70152 2Z" fill="#4876EF"/>
<path fill-rule="evenodd" clip-rule="evenodd" d="M20.9299 6.84649C21.2242 7.09855 21.2584 7.54141 21.0063 7.83565L16.7197 12.8398C16.6929 12.8757 16.6329 12.9528 16.5479 13.0262C15.5424 14.0046 13.9293 13.9962 12.9342 13.0011L12.0699 12.1369C12.0574 12.1261 12.0464 12.1161 12.0371 12.1075C12.0192 12.0908 12.0031 12.0747 11.9957 12.0673L11.9943 12.0659C11.9939 12.0655 11.9935 12.0652 11.9932 12.0648C11.9895 12.0618 11.9858 12.0587 11.9822 12.0556C11.4873 11.6314 10.7523 11.6877 10.3339 12.1757M10.3339 12.1757L6.04054 17.1892C5.78853 17.4835 5.34567 17.5178 5.05139 17.2658C4.75711 17.0138 4.72283 16.5709 4.97484 16.2766L9.26817 11.2631C10.1929 10.1842 11.8057 10.0685 12.8822 10.9791C12.907 10.9989 12.9275 11.0173 12.9432 11.0319C12.9612 11.0486 12.9772 11.0646 12.9847 11.0721L12.9861 11.0735C12.9864 11.0739 12.9868 11.0742 12.9871 11.0745C13.0047 11.089 13.0216 11.1043 13.0377 11.1204L13.9263 12.009C14.3819 12.4646 15.1256 12.4646 15.5813 12.009C15.5898 12.0005 15.5985 11.9922 15.6075 11.9841L15.6096 11.9813C15.6187 11.9691 15.6282 11.9573 15.6381 11.9458L19.9408 6.92289C20.1928 6.62864 20.6357 6.59444 20.9299 6.84649" fill="#4876EF"/>
</svg>
