<svg width="600" height="460" viewBox="0 0 600 460" fill="none" xmlns="http://www.w3.org/2000/svg">
<path d="M238.517 390.69L242.084 388.577L259.498 398.891L255.93 401.004L238.517 390.69Z" fill="#CAD9FF" fill-opacity="0.7"/>
<path d="M238.517 398.89L255.93 388.576L259.498 390.69L242.084 401.003L238.517 398.89Z" fill="#CAD9FF" fill-opacity="0.7"/>
<path d="M5.43486 358.158L9.00244 356.045L26.4158 366.359L22.8482 368.472L5.43486 358.158Z" fill="#CAD9FF" fill-opacity="0.7"/>
<path d="M5.43626 366.36L22.8496 356.046L26.4172 358.159L9.00384 368.473L5.43626 366.36Z" fill="#CAD9FF" fill-opacity="0.7"/>
<path d="M454.39 47.6724L457.958 45.5593L475.371 55.8733L471.803 57.9864L454.39 47.6724Z" fill="#CAD9FF" fill-opacity="0.7"/>
<path d="M454.391 55.8733L471.805 45.5593L475.372 47.6724L457.959 57.9864L454.391 55.8733Z" fill="#CAD9FF" fill-opacity="0.7"/>
<path d="M558.002 447.239L561.569 445.126L578.981 455.439L575.414 457.552L558.002 447.239Z" fill="#CAD9FF" fill-opacity="0.7"/>
<path d="M558.003 455.44L575.415 445.127L578.983 447.24L561.57 457.553L558.003 455.44Z" fill="#CAD9FF" fill-opacity="0.7"/>
<path d="M347.947 162.571L351.514 160.458L362.058 166.703L358.49 168.816L347.947 162.571Z" fill="#CAD9FF" fill-opacity="0.7"/>
<path d="M115.149 305.676L118.717 303.563L129.26 309.808L125.693 311.921L115.149 305.676Z" fill="#CAD9FF" fill-opacity="0.7"/>
<path d="M585.889 183.231L589.457 181.117L600 187.362L596.433 189.475L585.889 183.231Z" fill="#CAD9FF" fill-opacity="0.7"/>
<path d="M140.525 21.44L144.092 19.3269L154.636 25.5718L151.068 27.6849L140.525 21.44Z" fill="#CAD9FF" fill-opacity="0.7"/>
<path d="M429.332 420.173L432.9 418.06L443.443 424.305L439.876 426.418L429.332 420.173Z" fill="#CAD9FF" fill-opacity="0.7"/>
<path d="M422.158 3.47149L425.725 1.3584L436.268 7.60327L432.701 9.71636L422.158 3.47149Z" fill="#CAD9FF" fill-opacity="0.7"/>
<path d="M374.055 274.861L377.623 272.748L388.166 278.992L384.598 281.106L374.055 274.861Z" fill="#CAD9FF" fill-opacity="0.7"/>
<path d="M3.59892 244.807L7.1665 242.694L17.7099 248.938L14.1423 251.052L3.59892 244.807Z" fill="#CAD9FF" fill-opacity="0.7"/>
<path d="M268.179 334.229L271.747 332.116L282.29 338.361L278.723 340.474L268.179 334.229Z" fill="#CAD9FF" fill-opacity="0.7"/>
<path d="M241.952 160.458L252.495 154.213L256.063 156.326L245.519 162.571L241.952 160.458Z" fill="#CAD9FF" fill-opacity="0.7"/>
<path d="M561.439 249.3L571.981 243.055L575.549 245.169L565.007 251.413L561.439 249.3Z" fill="#CAD9FF" fill-opacity="0.7"/>
<path d="M181.501 443.383L192.044 437.138L195.612 439.251L185.068 445.496L181.501 443.383Z" fill="#CAD9FF" fill-opacity="0.7"/>
<path d="M194.564 291.964L205.107 285.719L208.675 287.832L198.132 294.077L194.564 291.964Z" fill="#CAD9FF" fill-opacity="0.7"/>
<path d="M71.9288 190.484L82.4722 184.239L86.0397 186.352L75.4964 192.597L71.9288 190.484Z" fill="#CAD9FF" fill-opacity="0.7"/>
<path d="M8.87215 335.238L19.4155 328.993L22.9831 331.106L12.4397 337.351L8.87215 335.238Z" fill="#CAD9FF" fill-opacity="0.7"/>
<path d="M561.436 10.7263L571.979 4.48145L575.547 6.59453L565.003 12.8394L561.436 10.7263Z" fill="#CAD9FF" fill-opacity="0.7"/>
<path d="M29.9508 76.8701L40.4941 70.6252L44.0617 72.7383L33.5183 78.9832L29.9508 76.8701Z" fill="#CAD9FF" fill-opacity="0.7"/>
<path d="M531.367 396.918L541.909 390.674L545.476 392.787L534.934 399.031L531.367 396.918Z" fill="#CAD9FF" fill-opacity="0.7"/>
<path d="M438.739 232.026C438.739 230.398 437.693 228.771 435.601 227.532C431.416 225.053 424.609 225.053 420.424 227.532L423.991 229.644C426.208 228.331 429.815 228.331 432.034 229.644C434.25 230.957 434.25 233.094 432.034 234.408L435.601 236.521C437.693 235.281 438.739 233.654 438.739 232.026Z" fill="#CAD9FF" fill-opacity="0.7"/>
<path d="M321.62 113.078C321.62 111.38 320.503 109.784 318.477 108.584L314.91 110.697C315.984 111.333 316.575 112.179 316.575 113.078C316.575 113.978 315.983 114.824 314.91 115.46C312.693 116.773 309.086 116.773 306.867 115.46L303.3 117.573C305.327 118.773 308.023 119.435 310.888 119.435C313.754 119.435 316.45 118.773 318.477 117.573C320.503 116.373 321.62 114.776 321.62 113.078Z" fill="#CAD9FF" fill-opacity="0.7"/>
<path d="M385.837 322.05C385.837 318.862 381.458 316.268 376.075 316.268C370.691 316.268 366.312 318.862 366.312 322.05C366.312 325.239 370.691 327.833 376.075 327.833C381.458 327.833 385.837 325.239 385.837 322.05ZM371.357 322.05C371.357 320.509 373.473 319.256 376.075 319.256C378.676 319.256 380.792 320.509 380.792 322.05C380.792 323.591 378.676 324.844 376.075 324.844C373.473 324.844 371.357 323.591 371.357 322.05Z" fill="#CAD9FF" fill-opacity="0.7"/>
<path d="M186.041 206.833C186.041 203.644 181.661 201.051 176.278 201.051C170.894 201.051 166.515 203.644 166.515 206.833C166.515 210.022 170.894 212.615 176.278 212.615C181.661 212.615 186.041 210.022 186.041 206.833ZM171.56 206.833C171.56 205.292 173.676 204.039 176.278 204.039C178.88 204.039 180.995 205.292 180.995 206.833C180.995 208.374 178.88 209.627 176.278 209.627C173.676 209.627 171.56 208.374 171.56 206.833Z" fill="#CAD9FF" fill-opacity="0.7"/>
<path d="M240.084 66.376C240.084 63.1874 235.704 60.5935 230.321 60.5935C224.937 60.5935 220.558 63.1874 220.558 66.376C220.558 69.5646 224.937 72.1585 230.321 72.1585C235.704 72.1585 240.084 69.5646 240.084 66.376ZM225.603 66.376C225.603 64.835 227.719 63.5819 230.321 63.5819C232.923 63.5819 235.038 64.835 235.038 66.376C235.038 67.917 232.923 69.1701 230.321 69.1701C227.719 69.1701 225.603 67.917 225.603 66.376Z" fill="#CAD9FF" fill-opacity="0.7"/>
<path d="M42.1094 437.028C42.1094 433.839 37.73 431.245 32.3467 431.245C26.9633 431.245 22.584 433.839 22.584 437.028C22.584 440.216 26.9633 442.81 32.3467 442.81C37.73 442.81 42.1094 440.216 42.1094 437.028ZM27.6293 437.028C27.6293 435.487 29.745 434.233 32.3467 434.233C34.9484 434.233 37.064 435.487 37.064 437.028C37.064 438.569 34.9484 439.822 32.3467 439.822C29.745 439.822 27.6293 438.569 27.6293 437.028Z" fill="#CAD9FF" fill-opacity="0.7"/>
<path d="M583.526 347.629C583.526 344.44 579.147 341.846 573.764 341.846C568.38 341.846 564.001 344.44 564.001 347.629C564.001 350.817 568.38 353.411 573.764 353.411C579.147 353.411 583.526 350.817 583.526 347.629ZM569.046 347.629C569.046 346.088 571.162 344.835 573.764 344.835C576.365 344.835 578.481 346.088 578.481 347.629C578.481 349.17 576.365 350.423 573.764 350.423C571.162 350.423 569.046 349.17 569.046 347.629Z" fill="#CAD9FF" fill-opacity="0.7"/>
<path d="M134.735 386.022L134.735 383.034L124.725 383.034L124.725 375.612L112.193 375.612L112.193 369.683L107.147 369.683L107.147 378.6L119.68 378.6L119.68 386.022L134.735 386.022Z" fill="#CAD9FF" fill-opacity="0.7"/>
<path d="M342.68 39.8457L342.68 36.8573L332.671 36.8573L332.671 29.4342L320.139 29.4342L320.139 22.0112L307.606 22.0112L307.606 14.5881L295.074 14.5881L295.074 8.65918L290.028 8.65918L290.028 17.5764L302.561 17.5764L302.561 24.9995L315.093 24.9995L315.093 32.4226L327.626 32.4226L327.626 39.8457L342.68 39.8457Z" fill="#CAD9FF" fill-opacity="0.7"/>
<path d="M515.23 321.998L515.23 313.081L502.697 313.081L502.697 305.657L490.165 305.657L490.165 298.234L475.109 298.234L475.109 301.223L485.119 301.223L485.119 308.646L497.652 308.646L497.652 316.069L510.184 316.069L510.184 321.998L515.23 321.998Z" fill="#CAD9FF" fill-opacity="0.7"/>
<path d="M123.842 248.368L123.842 245.379L108.787 245.379L108.787 252.802L96.2541 252.802L96.2541 260.225L83.7215 260.225L83.7215 267.648L71.189 267.648L71.189 276.566L76.2343 276.566L76.2343 270.637L88.7669 270.637L88.7669 263.214L101.299 263.214L101.299 255.791L113.832 255.791L113.832 248.368L123.842 248.368Z" fill="#CAD9FF" fill-opacity="0.7"/>
<path d="M153.056 136.5L153.056 126.59L138.847 126.59L138.847 119.667L133.802 119.667L133.802 129.578L148.011 129.578L148.011 136.5L153.056 136.5Z" fill="#CAD9FF" fill-opacity="0.7"/>
<path d="M422.423 382.711L422.423 372.8L417.377 372.8L417.377 379.722L403.168 379.722L403.168 389.634L408.213 389.634L408.213 382.711L422.423 382.711Z" fill="#CAD9FF" fill-opacity="0.7"/>
<path d="M590.632 84.7151L590.632 74.8037L585.586 74.8037L585.586 81.7267L571.375 81.7267L571.375 91.6371L576.421 91.6371L576.421 84.7151L590.632 84.7151Z" fill="#CAD9FF" fill-opacity="0.7"/>
<path d="M298.701 250.357L285.212 242.367L271.722 250.357L285.212 258.347L298.701 250.357ZM285.212 246.593L291.565 250.357L285.212 254.12L278.858 250.357L285.212 246.593Z" fill="#CAD9FF" fill-opacity="0.7"/>
<path d="M23.4954 17.3195L23.4954 5.5649e-07L1.43896 8.65926L23.4937 17.3195L23.4954 17.3195ZM18.4501 5.56631L18.4501 11.7532L10.571 8.65926L18.4501 5.56532L18.4501 5.56631Z" fill="#CAD9FF" fill-opacity="0.7"/>
<path d="M344.044 459.999L344.044 442.679L321.989 451.34L344.044 460L344.044 459.999ZM338.998 448.246L338.998 454.433L331.119 451.34L338.998 448.246Z" fill="#CAD9FF" fill-opacity="0.7"/>
<path d="M439.22 122.451L439.22 105.131L417.165 113.792L439.22 122.452L439.22 122.451ZM434.174 110.698L434.174 116.885L426.295 113.791L434.174 110.697L434.174 110.698Z" fill="#CAD9FF" fill-opacity="0.7"/>
<path d="M26.979 164.636L13.4895 156.646L-6.05073e-07 164.636L13.4895 172.626L26.979 164.636ZM13.4895 160.873L19.8432 164.636L13.4895 168.4L7.13576 164.636L13.4895 160.873Z" fill="#CAD9FF" fill-opacity="0.7"/>
<path d="M551.907 149.393L538.418 141.403L524.928 149.393L538.418 157.383L551.907 149.393ZM538.418 145.629L544.771 149.393L538.418 153.156L532.064 149.393L538.418 145.629Z" fill="#CAD9FF" fill-opacity="0.7"/>
</svg>
