<svg width="216" height="139" viewBox="0 0 216 139" fill="none" xmlns="http://www.w3.org/2000/svg">
  <path d="M24.3239 2.04906H191.244C194.734 2.04906 197.574 4.87906 197.574 8.37906V121.279C197.574 124.769 194.744 127.599 191.254 127.599H24.3139C20.8239 127.599 17.9939 124.769 17.9939 121.279V8.36906C17.9939 4.87906 20.8239 2.03906 24.3239 2.03906V2.04906Z" fill="white"/>
  <path d="M24.3239 0C19.7039 0 15.9539 3.76 15.9539 8.37V121.27C15.9539 125.88 19.7139 129.64 24.3239 129.64H191.244C195.864 129.64 199.614 125.88 199.614 121.27V8.37C199.614 3.76 195.854 0 191.244 0H24.3239ZM20.0339 121.27V8.37C20.0339 6.01 21.9539 4.09 24.3139 4.09H191.234C193.594 4.09 195.514 6.01 195.514 8.37V121.27C195.514 123.63 193.594 125.55 191.234 125.55H24.3239C21.9639 125.55 20.0439 123.63 20.0439 121.27H20.0339Z" fill="#BCCDE8"/>
  <path d="M29.4639 11.0195H186.094C188.014 11.0195 189.564 12.5795 189.564 14.4895V116.96C189.564 118.88 188.004 120.43 186.094 120.43H29.4639C27.5439 120.43 25.9839 118.87 25.9839 116.95V14.4995C25.9839 12.5795 27.5439 11.0295 29.4539 11.0295L29.4639 11.0195Z" fill="#EFF5FF"/>
  <path d="M117.654 7.15125C117.654 7.90125 117.044 8.52125 116.284 8.52125H99.2738C98.5238 8.52125 97.9038 7.91125 97.9038 7.15125C97.9038 6.40125 98.5138 5.78125 99.2738 5.78125H116.284C117.034 5.78125 117.654 6.39125 117.654 7.15125Z" fill="#BCCDE8"/>
  <path d="M212.924 124.051H2.63394C2.63394 124.051 1.24394 133.771 10.9639 136.551H204.594C214.314 133.771 212.924 124.051 212.924 124.051Z" fill="white"/>
  <path d="M2.63378 122H0.863781L0.613781 123.76C0.0437813 127.73 1.36378 135.93 10.4038 138.51L10.6838 138.59H204.884L205.164 138.51C214.204 135.93 215.524 127.73 214.964 123.76L214.714 122H2.63378ZM210.944 126.1C210.814 128.57 209.744 132.83 204.244 134.51H11.3238C5.82378 132.83 4.75378 128.57 4.62378 126.1H210.944Z" fill="#BCCDE8"/>
  <path d="M128.474 124.121H87.0839C87.0839 124.121 86.4139 128.811 91.1039 130.151H124.444C129.134 128.811 128.464 124.121 128.464 124.121H128.474Z" fill="#BCCDE8"/>
  <path d="M124.157 43.2778C123.563 42.8086 123.266 42.0779 123.266 41.0855C123.266 40.075 123.58 39.3082 124.209 38.7849C124.855 38.2616 125.729 38 126.829 38C127.528 38 128.707 38.1263 130.367 38.3789L132.149 38.6496C132.742 38.7217 133.345 38.7578 133.957 38.7578C134.585 38.7578 135.109 38.6225 135.529 38.3519C136.158 38.9292 136.472 39.633 136.472 40.463C136.472 41.293 136.114 42.0057 135.398 42.6011C134.664 43.2327 133.825 43.5484 132.882 43.5484C132.428 43.5484 131.834 43.4853 131.1 43.359C130.244 46.1377 129.817 48.4924 129.817 50.4231C129.817 52.3537 130.288 53.8243 131.231 54.8347C130.795 55.6467 130.253 56.2061 129.607 56.5128C128.961 56.8376 128.148 57 127.17 57C126.209 57 125.423 56.7293 124.812 56.188C124.218 55.6287 123.921 54.7806 123.921 53.6439C123.921 52.3267 124.27 50.5855 124.969 48.4202C125.668 46.273 126.541 44.3784 127.589 42.7365C127.083 42.6823 126.567 42.6553 126.043 42.6553C124.96 42.6553 124.331 42.8628 124.157 43.2778Z" fill="#5783F6"/>
  <path d="M120.719 45.2254C120.719 52.912 116.684 56.7553 108.613 56.7553C107.321 56.7553 105.609 56.5929 103.478 56.2681L106.412 40.2724C106.552 39.5506 106.666 38.9823 106.753 38.5673C109.408 38.3688 111.321 38.2695 112.491 38.2695C113.679 38.2695 114.815 38.3958 115.898 38.6484C116.981 38.9011 117.88 39.307 118.597 39.8664C120.012 40.9671 120.719 42.7534 120.719 45.2254ZM115.321 44.2239C115.321 41.5354 114.387 40.1912 112.518 40.1912H112.256C112.168 40.1912 112.081 40.2002 111.994 40.2182L109.295 54.7524C109.365 54.7885 109.434 54.8065 109.504 54.8065H109.714C110.36 54.8065 111.015 54.599 111.679 54.184C112.36 53.769 112.963 53.1375 113.487 52.2895C114.71 50.3227 115.321 47.6342 115.321 44.2239Z" fill="#5783F6"/>
  <path d="M94.0344 56.457L97.3621 38.5938H103.127L99.7466 56.457H94.0344Z" fill="#5783F6"/>
  <path d="M89.9096 56.9983C87.6737 56.9983 86.4509 55.3563 86.2412 52.0724H81.7344C81.385 52.9024 81.0881 53.6783 80.8435 54.4L80.1623 56.457H76.4939L84.7477 38.5938H90.3812L91.4818 51.7476C91.6564 53.6422 92.0931 54.8691 92.7919 55.4285C92.2853 56.475 91.3245 56.9983 89.9096 56.9983ZM82.5467 50.0966H86.1626L85.8482 43.1408V42.41L83.9878 46.6593L82.5467 50.0966Z" fill="#5783F6"/>
  <path d="M166.019 77.5833H163.644V67.1523H166.019V77.5833ZM158.495 73.3463V71.3323H160.205V67.3993H162.542V77.4503H160.205V73.3463H158.495ZM159.198 76.5193C157.222 76.8803 155.569 76.9183 152.985 76.9183H151.788V68.1783H158.362V70.1543H154.201V71.5413H157.754V73.4413H154.201V74.9423C156.025 74.9423 157.45 74.8473 158.989 74.5433L159.198 76.5193ZM166.019 78.2673V84.4233H154.163V78.2673H166.019ZM163.568 82.4663V80.2243H156.633V82.4663H163.568Z" fill="black"/>
  <path d="M148.236 77.4702C145.177 76.8622 142.973 75.1712 141.833 72.9482C140.693 75.1712 138.508 76.8812 135.449 77.4702L134.385 75.3802C138.337 74.7152 140.503 71.9032 140.503 69.4142V68.1602H143.182V69.4142C143.182 71.9412 145.348 74.7152 149.3 75.3802L148.236 77.4702ZM149.851 82.5052H134.005V80.4722H149.851V82.5052Z" fill="black"/>
  <path d="M131.404 84.6693H128.896V67.1133H131.404V84.6693ZM123.69 71.0273C123.69 74.2763 125.077 77.4683 128.041 78.7413L126.616 80.7743C124.564 79.8623 123.253 78.1333 122.474 75.9863C121.695 78.3613 120.327 80.2043 118.18 81.1923L116.679 79.1213C119.738 77.7913 121.182 74.4473 121.182 71.0273V68.4813H123.69V71.0273Z" fill="black"/>
  <path d="M114.362 84.6693H111.854V67.1133H114.362V84.6693ZM103.304 78.5323C105.964 78.5323 108.187 78.3613 110.638 77.9623L110.904 79.9953C108.016 80.5083 105.508 80.6033 102.316 80.6033H100.739V73.4023H106.42V70.6093H100.72V68.6143H108.985V75.3783H103.304V78.5323Z" fill="black"/>
  <path d="M98.7649 74.5233H96.6749V80.2233H94.1669V67.1133H96.6749V72.4523H98.7649V74.5233ZM89.6069 74.3523C89.8919 72.6803 89.9679 71.4643 89.9869 70.4003H83.4699V68.4053H92.4569V69.4883C92.4569 70.7043 92.4569 72.4143 92.0579 74.6373L89.6069 74.3523ZM93.3689 77.1263C89.7779 77.7913 85.6739 77.8863 82.6909 77.8863L82.4629 75.8913C83.4319 75.8913 84.5149 75.8913 85.6549 75.8723V72.4713H88.1059V75.7773C89.8539 75.7013 91.5449 75.5683 93.2169 75.3403L93.3689 77.1263ZM97.2259 82.3323V84.3273H85.0089V79.0643H87.5169V82.3323H97.2259Z" fill="black"/>
  <path d="M65.5923 70.629V68.672H69.4873V67H72.0143V68.672H75.9283L75.9093 70.629H65.5923ZM79.3863 73.384V77.374H76.8783V67.133H79.3863V71.332H81.7043V73.384H79.3863ZM75.0543 74.201C75.0543 76.025 73.2873 77.298 70.7603 77.298C68.2333 77.298 66.4663 76.025 66.4663 74.201C66.4663 72.32 68.2333 71.104 70.7603 71.104C73.2873 71.104 75.0543 72.32 75.0543 74.201ZM68.8603 74.201C68.8603 75.037 69.6203 75.474 70.7603 75.474C71.9003 75.474 72.6603 75.037 72.6603 74.201C72.6603 73.365 71.9003 72.928 70.7603 72.928C69.6203 72.928 68.8603 73.365 68.8603 74.201ZM79.3863 78.039V84.442H68.0053V78.039H70.4943V79.369H76.8973V78.039H79.3863ZM70.4943 81.269V82.485H76.8973V81.269H70.4943Z" fill="black"/>
  <path d="M64.3209 78.1158H48.4939V76.1588H55.1439V75.0758H50.4699V67.5898H62.5159V69.4898H52.9589V70.4018H62.1169V72.2258H52.9589V73.1758H62.6489V75.0758H57.6519V76.1588H64.3209V78.1158ZM56.3789 78.8948C60.3879 78.8948 62.4589 79.8638 62.4589 81.7638C62.4589 83.6638 60.3879 84.6328 56.3789 84.6328C52.4079 84.6328 50.3179 83.6638 50.3179 81.7638C50.3179 79.8638 52.4079 78.8948 56.3789 78.8948ZM56.3789 82.8088C58.8299 82.8088 59.9319 82.5048 59.9319 81.7638C59.9319 81.0228 58.8299 80.7378 56.3789 80.7378C53.9279 80.7378 52.8449 81.0228 52.8449 81.7638C52.8449 82.5048 53.9279 82.8088 56.3789 82.8088Z" fill="black"/>
  </svg>
  