<svg width="216" height="139" viewBox="0 0 216 139" fill="none" xmlns="http://www.w3.org/2000/svg">
<path d="M24.5368 2.04906H191.457C194.947 2.04906 197.787 4.87906 197.787 8.37906V121.279C197.787 124.769 194.957 127.599 191.467 127.599H24.5268C21.0368 127.599 18.2068 124.769 18.2068 121.279V8.36906C18.2068 4.87906 21.0368 2.03906 24.5368 2.03906V2.04906Z" fill="white"/>
<path d="M24.5367 0C19.9167 0 16.1667 3.76 16.1667 8.37V121.27C16.1667 125.88 19.9267 129.64 24.5367 129.64H191.457C196.077 129.64 199.827 125.88 199.827 121.27V8.37C199.827 3.76 196.067 0 191.457 0H24.5367ZM20.2467 121.27V8.37C20.2467 6.01 22.1667 4.09 24.5267 4.09H191.447C193.807 4.09 195.727 6.01 195.727 8.37V121.27C195.727 123.63 193.807 125.55 191.447 125.55H24.5367C22.1767 125.55 20.2567 123.63 20.2567 121.27H20.2467Z" fill="#BCCDE8"/>
<path d="M29.6768 11.0195H186.307C188.227 11.0195 189.777 12.5795 189.777 14.4895V116.96C189.777 118.88 188.217 120.43 186.307 120.43H29.6768C27.7568 120.43 26.1968 118.87 26.1968 116.95V14.4995C26.1968 12.5795 27.7568 11.0295 29.6668 11.0295L29.6768 11.0195Z" fill="#EFF5FF"/>
<path d="M117.867 7.15125C117.867 7.90125 117.257 8.52125 116.497 8.52125H99.4867C98.7367 8.52125 98.1167 7.91125 98.1167 7.15125C98.1167 6.40125 98.7267 5.78125 99.4867 5.78125H116.497C117.247 5.78125 117.867 6.39125 117.867 7.15125Z" fill="#BCCDE8"/>
<path d="M213.137 124.051H2.84683C2.84683 124.051 1.45683 133.771 11.1768 136.551H204.807C214.527 133.771 213.137 124.051 213.137 124.051Z" fill="white"/>
<path d="M2.84667 122H1.07667L0.826672 123.76C0.256672 127.73 1.57667 135.93 10.6167 138.51L10.8967 138.59H205.097L205.377 138.51C214.417 135.93 215.737 127.73 215.177 123.76L214.927 122H2.84667ZM211.157 126.1C211.027 128.57 209.957 132.83 204.457 134.51H11.5367C6.03667 132.83 4.96667 128.57 4.83667 126.1H211.157Z" fill="#BCCDE8"/>
<path d="M128.687 124.121H87.2968C87.2968 124.121 86.6268 128.811 91.3168 130.151H124.657C129.347 128.811 128.677 124.121 128.677 124.121H128.687Z" fill="#BCCDE8"/>
<path d="M124.37 43.2778C123.776 42.8086 123.479 42.0779 123.479 41.0855C123.479 40.075 123.793 39.3082 124.422 38.7849C125.068 38.2616 125.942 38 127.042 38C127.741 38 128.92 38.1263 130.58 38.3789L132.361 38.6496C132.955 38.7217 133.558 38.7578 134.169 38.7578C134.798 38.7578 135.322 38.6225 135.742 38.3519C136.37 38.9292 136.685 39.633 136.685 40.463C136.685 41.293 136.327 42.0057 135.611 42.6011C134.877 43.2327 134.038 43.5484 133.095 43.5484C132.641 43.5484 132.047 43.4853 131.313 43.359C130.457 46.1377 130.029 48.4924 130.029 50.4231C130.029 52.3537 130.501 53.8243 131.444 54.8347C131.008 55.6467 130.466 56.2061 129.82 56.5128C129.173 56.8376 128.361 57 127.383 57C126.422 57 125.636 56.7293 125.025 56.188C124.431 55.6287 124.134 54.7806 124.134 53.6439C124.134 52.3267 124.483 50.5855 125.182 48.4202C125.881 46.273 126.754 44.3784 127.802 42.7365C127.296 42.6823 126.78 42.6553 126.256 42.6553C125.173 42.6553 124.544 42.8628 124.37 43.2778Z" fill="#5783F6"/>
<path d="M120.932 45.2254C120.932 52.912 116.897 56.7553 108.826 56.7553C107.534 56.7553 105.822 56.5929 103.691 56.2681L106.625 40.2724C106.765 39.5506 106.879 38.9823 106.966 38.5673C109.621 38.3688 111.534 38.2695 112.704 38.2695C113.892 38.2695 115.028 38.3958 116.111 38.6484C117.194 38.9011 118.093 39.307 118.81 39.8664C120.224 40.9671 120.932 42.7534 120.932 45.2254ZM115.534 44.2239C115.534 41.5354 114.6 40.1912 112.731 40.1912H112.469C112.381 40.1912 112.294 40.2002 112.207 40.2182L109.508 54.7524C109.578 54.7885 109.647 54.8065 109.717 54.8065H109.927C110.573 54.8065 111.228 54.599 111.892 54.184C112.573 53.769 113.176 53.1375 113.7 52.2895C114.923 50.3227 115.534 47.6342 115.534 44.2239Z" fill="#5783F6"/>
<path d="M94.2473 56.457L97.575 38.5938H103.34L99.9595 56.457H94.2473Z" fill="#5783F6"/>
<path d="M90.1225 56.9983C87.8865 56.9983 86.6638 55.3563 86.4541 52.0724H81.9473C81.5979 52.9024 81.301 53.6783 81.0564 54.4L80.3751 56.457H76.7068L84.9606 38.5938H90.5941L91.6946 51.7476C91.8693 53.6422 92.306 54.8691 93.0048 55.4285C92.4982 56.475 91.5374 56.9983 90.1225 56.9983ZM82.7596 50.0966H86.3755L86.0611 43.1408V42.41L84.2007 46.6593L82.7596 50.0966Z" fill="#5783F6"/>
<path d="M166.232 77.5833H163.857V67.1523H166.232V77.5833ZM158.708 73.3463V71.3323H160.418V67.3993H162.755V77.4503H160.418V73.3463H158.708ZM159.411 76.5193C157.435 76.8803 155.782 76.9183 153.198 76.9183H152.001V68.1783H158.575V70.1543H154.414V71.5413H157.967V73.4413H154.414V74.9423C156.238 74.9423 157.663 74.8473 159.202 74.5433L159.411 76.5193ZM166.232 78.2673V84.4233H154.376V78.2673H166.232ZM163.781 82.4663V80.2243H156.846V82.4663H163.781Z" fill="black"/>
<path d="M148.449 77.4702C145.39 76.8622 143.186 75.1712 142.046 72.9482C140.906 75.1712 138.721 76.8812 135.662 77.4702L134.598 75.3802C138.55 74.7152 140.716 71.9032 140.716 69.4142V68.1602H143.395V69.4142C143.395 71.9412 145.561 74.7152 149.513 75.3802L148.449 77.4702ZM150.064 82.5052H134.218V80.4722H150.064V82.5052Z" fill="black"/>
<path d="M131.617 84.6693H129.109V67.1133H131.617V84.6693ZM123.903 71.0273C123.903 74.2763 125.29 77.4683 128.254 78.7413L126.829 80.7743C124.777 79.8623 123.466 78.1333 122.687 75.9863C121.908 78.3613 120.54 80.2043 118.393 81.1923L116.892 79.1213C119.951 77.7913 121.395 74.4473 121.395 71.0273V68.4813H123.903V71.0273Z" fill="black"/>
<path d="M114.575 84.6693H112.067V67.1133H114.575V84.6693ZM103.517 78.5323C106.177 78.5323 108.4 78.3613 110.851 77.9623L111.117 79.9953C108.229 80.5083 105.721 80.6033 102.529 80.6033H100.952V73.4023H106.633V70.6093H100.933V68.6143H109.198V75.3783H103.517V78.5323Z" fill="black"/>
<path d="M98.9778 74.5233H96.8878V80.2233H94.3798V67.1133H96.8878V72.4523H98.9778V74.5233ZM89.8198 74.3523C90.1048 72.6803 90.1808 71.4643 90.1998 70.4003H83.6828V68.4053H92.6698V69.4883C92.6698 70.7043 92.6698 72.4143 92.2708 74.6373L89.8198 74.3523ZM93.5818 77.1263C89.9908 77.7913 85.8868 77.8863 82.9038 77.8863L82.6758 75.8913C83.6448 75.8913 84.7278 75.8913 85.8678 75.8723V72.4713H88.3188V75.7773C90.0668 75.7013 91.7578 75.5683 93.4298 75.3403L93.5818 77.1263ZM97.4388 82.3323V84.3273H85.2218V79.0643H87.7298V82.3323H97.4388Z" fill="black"/>
<path d="M65.8052 70.629V68.672H69.7002V67H72.2272V68.672H76.1412L76.1222 70.629H65.8052ZM79.5992 73.384V77.374H77.0912V67.133H79.5992V71.332H81.9172V73.384H79.5992ZM75.2672 74.201C75.2672 76.025 73.5002 77.298 70.9732 77.298C68.4462 77.298 66.6792 76.025 66.6792 74.201C66.6792 72.32 68.4462 71.104 70.9732 71.104C73.5002 71.104 75.2672 72.32 75.2672 74.201ZM69.0732 74.201C69.0732 75.037 69.8332 75.474 70.9732 75.474C72.1132 75.474 72.8732 75.037 72.8732 74.201C72.8732 73.365 72.1132 72.928 70.9732 72.928C69.8332 72.928 69.0732 73.365 69.0732 74.201ZM79.5992 78.039V84.442H68.2182V78.039H70.7072V79.369H77.1102V78.039H79.5992ZM70.7072 81.269V82.485H77.1102V81.269H70.7072Z" fill="black"/>
<path d="M64.5338 78.1158H48.7068V76.1588H55.3568V75.0758H50.6828V67.5898H62.7288V69.4898H53.1718V70.4018H62.3298V72.2258H53.1718V73.1758H62.8618V75.0758H57.8648V76.1588H64.5338V78.1158ZM56.5918 78.8948C60.6008 78.8948 62.6718 79.8638 62.6718 81.7638C62.6718 83.6638 60.6008 84.6328 56.5918 84.6328C52.6208 84.6328 50.5308 83.6638 50.5308 81.7638C50.5308 79.8638 52.6208 78.8948 56.5918 78.8948ZM56.5918 82.8088C59.0428 82.8088 60.1448 82.5048 60.1448 81.7638C60.1448 81.0228 59.0428 80.7378 56.5918 80.7378C54.1408 80.7378 53.0578 81.0228 53.0578 81.7638C53.0578 82.5048 54.1408 82.8088 56.5918 82.8088Z" fill="black"/>
</svg>
