<svg width="16" height="15" viewBox="0 0 16 15" fill="none" xmlns="http://www.w3.org/2000/svg">
<g id="Group 23">
<g id="Group 21">
<path id="Vector" d="M7.48583 7.97921C7.35755 7.97921 7.2342 7.92987 7.13553 7.83613L0.144314 0.844915C-0.0481047 0.652497 -0.0481047 0.336733 0.144314 0.144314C0.336733 -0.0481047 0.652497 -0.0481047 0.844915 0.144314L7.83613 7.14046C8.02855 7.33288 8.02855 7.64371 7.83613 7.83613C7.73745 7.9348 7.61411 7.97921 7.48583 7.97921Z" fill="#1F2125"/>
<path id="Vector_2" d="M0.494615 14.9997C0.366336 14.9997 0.24299 14.9504 0.144314 14.8566C-0.0481047 14.6642 -0.0481047 14.3534 0.144314 14.161L7.14046 7.16482C7.33288 6.9724 7.64371 6.9724 7.83613 7.16482C8.02855 7.35724 8.02855 7.66807 7.83613 7.86049L0.844915 14.8517C0.746239 14.9504 0.622894 14.9948 0.494615 14.9948V14.9997Z" fill="#1F2125"/>
</g>
<g id="Group 22">
<path id="Vector_3" d="M15.4858 7.97921C15.3575 7.97921 15.2342 7.92987 15.1355 7.83613L8.14431 0.844915C7.9519 0.652497 7.9519 0.336733 8.14431 0.144314C8.33673 -0.0481047 8.6525 -0.0481047 8.84492 0.144314L15.8361 7.14046C16.0285 7.33288 16.0285 7.64371 15.8361 7.83613C15.7375 7.9348 15.6141 7.97921 15.4858 7.97921Z" fill="#1F2125"/>
<path id="Vector_4" d="M8.49461 14.9997C8.36634 14.9997 8.24299 14.9504 8.14431 14.8566C7.9519 14.6642 7.9519 14.3534 8.14431 14.161L15.1405 7.16482C15.3329 6.9724 15.6437 6.9724 15.8361 7.16482C16.0285 7.35724 16.0285 7.66807 15.8361 7.86049L8.84492 14.8517C8.74624 14.9504 8.62289 14.9948 8.49461 14.9948V14.9997Z" fill="#1F2125"/>
</g>
</g>
</svg>
