<svg width="18" height="18" viewBox="0 0 18 18" fill="none" xmlns="http://www.w3.org/2000/svg">
<g id="Group 1251">
<path id="Line 10 (Stroke)" fill-rule="evenodd" clip-rule="evenodd" d="M9.23077 0C9.6556 0 10 0.309957 10 0.692308L10 17.3077C10 17.69 9.6556 18 9.23077 18C8.80593 18 8.46154 17.69 8.46154 17.3077L8.46154 0.692308C8.46154 0.309957 8.80593 0 9.23077 0Z" fill="black"/>
<path id="Line 10 (Stroke)_2" fill-rule="evenodd" clip-rule="evenodd" d="M18 9.23077C18 9.6556 17.69 10 17.3077 10L0.692308 10C0.309958 10 3.01081e-08 9.6556 6.72483e-08 9.23077C1.04388e-07 8.80593 0.309958 8.46154 0.692309 8.46154L17.3077 8.46154C17.69 8.46154 18 8.80593 18 9.23077Z" fill="black"/>
</g>
</svg>
