<svg width="8" height="15" viewBox="0 0 8 15" fill="none" xmlns="http://www.w3.org/2000/svg">
<g id="Group 20">
<path id="Vector" d="M7.48583 7.97921C7.35755 7.97921 7.2342 7.92987 7.13553 7.83613L0.144314 0.844915C-0.0481047 0.652497 -0.0481047 0.336733 0.144314 0.144314C0.336733 -0.0481047 0.652497 -0.0481047 0.844915 0.144314L7.83613 7.14046C8.02855 7.33288 8.02855 7.64371 7.83613 7.83613C7.73745 7.9348 7.61411 7.97921 7.48583 7.97921Z" fill="#1F2125"/>
<path id="Vector_2" d="M0.494615 14.9997C0.366336 14.9997 0.24299 14.9504 0.144314 14.8566C-0.0481047 14.6642 -0.0481047 14.3534 0.144314 14.161L7.14046 7.16482C7.33288 6.9724 7.64371 6.9724 7.83613 7.16482C8.02855 7.35724 8.02855 7.66807 7.83613 7.86049L0.844915 14.8517C0.746239 14.9504 0.622894 14.9948 0.494615 14.9948V14.9997Z" fill="#1F2125"/>
</g>
</svg>
