<svg width="16" height="16" viewBox="0 0 16 16" fill="none" xmlns="http://www.w3.org/2000/svg">
<g id="Group 1219">
<path id="Vector (Stroke)" fill-rule="evenodd" clip-rule="evenodd" d="M11.2842 4.71615C11.4985 4.93046 11.4985 5.27793 11.2842 5.49224L5.49152 11.285C5.27721 11.4993 4.92974 11.4993 4.71542 11.285C4.50111 11.0707 4.50111 10.7232 4.71542 10.5089L10.5081 4.71616C10.7224 4.50184 11.0699 4.50184 11.2842 4.71615Z" fill="#F05050"/>
<path id="Vector (Stroke)_2" fill-rule="evenodd" clip-rule="evenodd" d="M4.71542 4.71615C4.92974 4.50184 5.27721 4.50184 5.49152 4.71616L11.2842 10.5089C11.4985 10.7232 11.4985 11.0707 11.2842 11.285C11.0699 11.4993 10.7224 11.4993 10.5081 11.285L4.71542 5.49224C4.50111 5.27793 4.50111 4.93046 4.71542 4.71615Z" fill="#F05050"/>
<path id="Vector (Stroke)_3" fill-rule="evenodd" clip-rule="evenodd" d="M0.5 8C0.5 3.85787 3.85787 0.5 8 0.5C12.1421 0.5 15.5 3.85787 15.5 8C15.5 12.1421 12.1421 15.5 8 15.5C3.85787 15.5 0.5 12.1421 0.5 8ZM8 1.59756C4.46403 1.59756 1.59756 4.46403 1.59756 8C1.59756 11.536 4.46403 14.4024 8 14.4024C11.536 14.4024 14.4024 11.536 14.4024 8C14.4024 4.46403 11.536 1.59756 8 1.59756Z" fill="#F05050"/>
</g>
</svg>
