<svg width="16" height="15" viewBox="0 0 16 15" fill="none" xmlns="http://www.w3.org/2000/svg">
<g id="Group 25">
<g id="Group 21">
<path id="Vector" d="M8.51417 7.02079C8.64245 7.02079 8.7658 7.07013 8.86447 7.16387L15.8557 14.1551C16.0481 14.3475 16.0481 14.6633 15.8557 14.8557C15.6633 15.0481 15.3475 15.0481 15.1551 14.8557L8.16387 7.85954C7.97145 7.66712 7.97145 7.35629 8.16387 7.16387C8.26255 7.0652 8.38589 7.02079 8.51417 7.02079Z" fill="#C4C8CA"/>
<path id="Vector_2" d="M15.5054 0.000286146C15.6337 0.000286134 15.757 0.049624 15.8557 0.143366C16.0481 0.335785 16.0481 0.646615 15.8557 0.839034L8.85954 7.83518C8.66712 8.0276 8.35629 8.0276 8.16387 7.83518C7.97145 7.64276 7.97145 7.33193 8.16387 7.13951L15.1551 0.1483C15.2538 0.049624 15.3771 0.00522047 15.5054 0.00522046L15.5054 0.000286146Z" fill="#C4C8CA"/>
</g>
<g id="Group 22">
<path id="Vector_3" d="M0.514173 7.02079C0.642452 7.02079 0.765797 7.07013 0.864474 7.16387L7.85569 14.1551C8.0481 14.3475 8.0481 14.6633 7.85569 14.8557C7.66327 15.0481 7.3475 15.0481 7.15508 14.8557L0.163872 7.85954C-0.028547 7.66712 -0.028547 7.35629 0.163872 7.16387C0.262548 7.0652 0.385894 7.02079 0.514173 7.02079Z" fill="#C4C8CA"/>
<path id="Vector_4" d="M7.50538 0.000286146C7.63366 0.000286134 7.75701 0.049624 7.85569 0.143366C8.0481 0.335785 8.0481 0.646615 7.85569 0.839034L0.85954 7.83518C0.667121 8.0276 0.356291 8.0276 0.163873 7.83518C-0.0285464 7.64276 -0.0285464 7.33193 0.163873 7.13951L7.15508 0.1483C7.25376 0.049624 7.37711 0.00522047 7.50538 0.00522046L7.50538 0.000286146Z" fill="#C4C8CA"/>
</g>
</g>
</svg>
