<svg width="24" height="24" viewBox="0 0 24 24" fill="none" xmlns="http://www.w3.org/2000/svg">
<g id="Group 1252">
<path id="Line 10 (Stroke)" fill-rule="evenodd" clip-rule="evenodd" d="M6.15381 5.84583C6.43703 5.56261 6.87326 5.53965 7.12816 5.79455L18.2051 16.8715C18.46 17.1264 18.437 17.5626 18.1538 17.8458C17.8706 18.1291 17.4343 18.152 17.1794 17.8971L6.10252 6.82019C5.84762 6.56529 5.87058 6.12905 6.15381 5.84583Z" fill="white"/>
<path id="Line 10 (Stroke)_2" fill-rule="evenodd" clip-rule="evenodd" d="M18.1538 6.15417C18.437 6.43739 18.46 6.87363 18.2051 7.12853L7.12816 18.2055C6.87326 18.4604 6.43703 18.4374 6.1538 18.1542C5.87058 17.8709 5.84762 17.4347 6.10252 17.1798L17.1794 6.10289C17.4343 5.84799 17.8706 5.87095 18.1538 6.15417Z" fill="white"/>
</g>
</svg>
