<svg width="10" height="10" viewBox="0 0 10 10" fill="none" xmlns="http://www.w3.org/2000/svg">
<g id="Group 1252">
<path id="Line 10 (Stroke)" fill-rule="evenodd" clip-rule="evenodd" d="M1.23077 0C1.6556 0 2 0.309957 2 0.692308L2 9.30769C2 9.69004 1.6556 10 1.23077 10C0.805935 10 0.461538 9.69004 0.461538 9.30769L0.461538 0.692308C0.461538 0.309957 0.805935 0 1.23077 0Z" fill="black"/>
<path id="Line 10 (Stroke)_2" fill-rule="evenodd" clip-rule="evenodd" d="M10 9.23077C10 9.6556 9.69004 10 9.30769 10L1.69231 10C1.30996 10 1 9.6556 1 9.23077C1 8.80593 1.30996 8.46154 1.69231 8.46154L9.30769 8.46154C9.69004 8.46154 10 8.80593 10 9.23077Z" fill="black"/>
</g>
</svg>
