<svg width="8" height="15" viewBox="0 0 8 15" fill="none" xmlns="http://www.w3.org/2000/svg">
<g id="Group 24">
<path id="Vector" d="M0.514173 7.02079C0.642452 7.02079 0.765797 7.07013 0.864474 7.16387L7.85569 14.1551C8.0481 14.3475 8.0481 14.6633 7.85569 14.8557C7.66327 15.0481 7.3475 15.0481 7.15508 14.8557L0.163872 7.85954C-0.028547 7.66712 -0.028547 7.35629 0.163872 7.16387C0.262548 7.0652 0.385894 7.02079 0.514173 7.02079Z" fill="#C4C8CA"/>
<path id="Vector_2" d="M7.50538 0.000286146C7.63366 0.000286134 7.75701 0.049624 7.85569 0.143366C8.0481 0.335785 8.0481 0.646615 7.85569 0.839034L0.85954 7.83518C0.667121 8.0276 0.356291 8.0276 0.163873 7.83518C-0.0285464 7.64276 -0.0285464 7.33193 0.163873 7.13951L7.15508 0.1483C7.25376 0.049624 7.37711 0.00522047 7.50538 0.00522046L7.50538 0.000286146Z" fill="#C4C8CA"/>
</g>
</svg>
