<svg width="14" height="10" viewBox="0 0 14 10" fill="none" xmlns="http://www.w3.org/2000/svg">
<g id="Group 1199">
<path id="Vector" d="M4.78669 9.66665C4.66909 9.66665 4.55601 9.62143 4.46555 9.53553C4.28915 9.35919 4.28915 9.07434 4.46555 8.89801L12.8965 0.465564C13.0729 0.289229 13.3579 0.289229 13.5343 0.465564C13.7107 0.6419 13.7107 0.926749 13.5343 1.10308L5.10783 9.531C5.01736 9.62143 4.90429 9.66213 4.78669 9.66213V9.66665Z" fill="#F05050"/>
<path id="Vector_2" d="M4.55306 9.66667C4.436 9.66667 4.32344 9.62168 4.2334 9.53619L0.464945 5.76597C0.289354 5.5905 0.289354 5.30706 0.464945 5.1316C0.640536 4.95613 0.924183 4.95613 1.09977 5.1316L4.86823 8.89733C5.04382 9.07279 5.04382 9.35623 4.86823 9.53169C4.77818 9.62168 4.66562 9.66217 4.54856 9.66217L4.55306 9.66667Z" fill="#F05050"/>
</g>
</svg>
