<svg width="14" height="14" viewBox="0 0 14 14" fill="none" xmlns="http://www.w3.org/2000/svg">
<g id="Group 1201">
<path id="Vector" d="M6.51855 9.11368H7.48143V10.1255H6.51855V9.11368ZM6.68175 8.33848L6.55119 4.83787L6.52671 3.875H7.47327L7.31007 8.33848H6.68175Z" fill="#373F57"/>
<path id="Vector_2" d="M6.99992 13.6666C3.32387 13.6666 0.333252 10.676 0.333252 6.99998C0.333252 3.32393 3.32387 0.333313 6.99992 0.333313C10.676 0.333313 13.6666 3.32393 13.6666 6.99998C13.6666 10.676 10.676 13.6666 6.99992 13.6666ZM6.99992 0.945308C3.66251 0.945308 0.945247 3.66257 0.945247 6.99998C0.945247 10.3374 3.66251 13.0547 6.99992 13.0547C10.3373 13.0547 13.0546 10.3374 13.0546 6.99998C13.0546 3.66257 10.3373 0.945308 6.99992 0.945308Z" fill="#373F57"/>
</g>
</svg>
