<svg width="16" height="16" viewBox="0 0 16 16" fill="none" xmlns="http://www.w3.org/2000/svg">
<g id="ic/icon12">
<path id="Rectangle 65 (Stroke)" fill-rule="evenodd" clip-rule="evenodd" d="M15 1.97907H1V14.9989H15V1.97907ZM0 0.977539V16.0004H16V0.977539H0Z" fill="#1D1D1B"/>
<path id="Rectangle 66" d="M0.977051 5.00781H15.0229V5.98491H0.977051V5.00781Z" fill="#1D1D1B"/>
<path id="Rectangle 67" d="M3.05347 0H4.03057V3.05344H3.05347V0Z" fill="#1D1D1B"/>
<path id="Rectangle 68" d="M11.9695 0H12.9466V3.05344H11.9695V0Z" fill="#1D1D1B"/>
<path id="Rectangle 69" d="M3.05347 9.03809L3.05347 8.06099L5.00767 8.06099L5.00767 9.03809L3.05347 9.03809Z" fill="#1D1D1B"/>
<path id="Rectangle 72" d="M3.05347 12.9463L3.05347 11.9692L5.00767 11.9692L5.00767 12.9463L3.05347 12.9463Z" fill="#1D1D1B"/>
<path id="Rectangle 75" d="M3.05347 10.9922L3.05347 10.0151L5.00767 10.0151L5.00767 10.9922L3.05347 10.9922Z" fill="#1D1D1B"/>
<path id="Rectangle 70" d="M6.96191 9.03809L6.96191 8.06099L9.03825 8.06099L9.03825 9.03809L6.96191 9.03809Z" fill="#1D1D1B"/>
<path id="Rectangle 73" d="M6.96191 12.9463L6.96191 11.9692L9.03825 11.9692L9.03825 12.9463L6.96191 12.9463Z" fill="#1D1D1B"/>
<path id="Rectangle 76" d="M6.96191 10.9922L6.96191 10.0151L9.03825 10.0151L9.03825 10.9922L6.96191 10.9922Z" fill="#1D1D1B"/>
<path id="Rectangle 71" d="M10.9924 9.03809L10.9924 8.06099L12.9466 8.06099L12.9466 9.03809L10.9924 9.03809Z" fill="#1D1D1B"/>
<path id="Rectangle 74" d="M10.9924 12.9463L10.9924 11.9692L12.9466 11.9692L12.9466 12.9463L10.9924 12.9463Z" fill="#1D1D1B"/>
<path id="Rectangle 77" d="M10.9924 10.9922L10.9924 10.0151L12.9466 10.0151L12.9466 10.9922L10.9924 10.9922Z" fill="#1D1D1B"/>
</g>
</svg>
