<svg width="24" height="24" viewBox="0 0 24 24" fill="none" xmlns="http://www.w3.org/2000/svg">
<circle cx="12" cy="12" r="12" fill="white"/>
<path d="M10.5 16.5C10.914 16.5 11.25 16.836 11.25 17.25C11.25 17.63 10.968 17.943 10.602 17.993L10.5 18L4 18C3.586 18 3.25 17.664 3.25 17.25C3.25 16.87 3.532 16.557 3.898 16.507L4 16.5L10.5 16.5ZM14.696 6.897L14.78 6.97L18.78 10.97C19.047 11.236 19.07 11.653 18.853 11.946L18.78 12.03L14.78 16.03C14.487 16.323 14.013 16.323 13.72 16.03C13.453 15.764 13.43 15.347 13.647 15.054L13.72 14.97L16.439 12.25L4 12.25C3.586 12.25 3.25 11.914 3.25 11.5C3.25 11.12 3.532 10.807 3.898 10.757L4 10.75L16.439 10.75L13.719 8.03C13.453 7.764 13.429 7.347 13.647 7.054L13.72 6.97C13.986 6.703 14.403 6.68 14.696 6.897ZM10.5 5C10.914 5 11.25 5.336 11.25 5.75C11.25 6.13 10.968 6.443 10.602 6.493L10.5 6.5L4 6.5C3.586 6.5 3.25 6.164 3.25 5.75C3.25 5.37 3.532 5.057 3.898 5.007L4 5L10.5 5Z" fill="#AFBAC8"/>
</svg>
