<svg width="24" height="24" viewBox="0 0 24 24" fill="none" xmlns="http://www.w3.org/2000/svg">
<path d="M12 24C18.6274 24 24 18.6274 24 12C24 5.37258 18.6274 0 12 0C5.37258 0 0 5.37258 0 12C0 18.6274 5.37258 24 12 24Z" fill="#CCD0D6"/>
<path fill-rule="evenodd" clip-rule="evenodd" d="M9.67651 6.5907C9.30189 7.09453 9.14966 7.86152 9.14966 8.9V10.2C9.14966 10.6142 8.81387 10.95 8.39966 10.95C7.98544 10.95 7.64966 10.6142 7.64966 10.2V8.9C7.64966 7.78698 7.79743 6.60397 8.4728 5.69567C9.185 4.73785 10.3512 4.25 11.9997 4.25C13.6481 4.25 14.8143 4.73785 15.5265 5.69567C16.2019 6.60397 16.3497 7.78698 16.3497 8.9V10.2C16.3497 10.6142 16.0139 10.95 15.5997 10.95C15.1854 10.95 14.8497 10.6142 14.8497 10.2V8.9C14.8497 7.86152 14.6974 7.09453 14.3228 6.5907C13.985 6.1364 13.3512 5.75 11.9997 5.75C10.6481 5.75 10.0143 6.1364 9.67651 6.5907Z" fill="white"/>
<path fill-rule="evenodd" clip-rule="evenodd" d="M9 10.9492C7.81275 10.9492 6.75 12.0109 6.75 13.4492V14.7492C6.75 16.1876 7.81275 17.2492 9 17.2492H15C16.1872 17.2492 17.25 16.1876 17.25 14.7492V13.4492C17.25 12.0109 16.1872 10.9492 15 10.9492H9ZM5.25 13.4492C5.25 11.2977 6.87354 9.44922 9 9.44922H15C17.1265 9.44922 18.75 11.2977 18.75 13.4492V14.7492C18.75 16.9007 17.1265 18.7492 15 18.7492H9C6.87354 18.7492 5.25 16.9007 5.25 14.7492V13.4492Z" fill="white"/>
<path d="M12.5997 14.0992C12.5997 14.4582 12.331 14.7492 11.9997 14.7492C11.6683 14.7492 11.3997 14.4582 11.3997 14.0992C11.3997 13.7402 11.6683 13.4492 11.9997 13.4492C12.331 13.4492 12.5997 13.7402 12.5997 14.0992Z" fill="white"/>
<path d="M15.2 14.0992C15.2 14.4582 14.9314 14.7492 14.6 14.7492C14.2686 14.7492 14 14.4582 14 14.0992C14 13.7402 14.2686 13.4492 14.6 13.4492C14.9314 13.4492 15.2 13.7402 15.2 14.0992Z" fill="white"/>
<path d="M10.2 14.0992C10.2 14.4582 9.93137 14.7492 9.6 14.7492C9.26863 14.7492 9 14.4582 9 14.0992C9 13.7402 9.26863 13.4492 9.6 13.4492C9.93137 13.4492 10.2 13.7402 10.2 14.0992Z" fill="white"/>
</svg>
