<svg width="24" height="24" viewBox="0 0 24 24" fill="none" xmlns="http://www.w3.org/2000/svg">
<path d="M11.2778 15.1705H12.7221V16.6883H11.2778V15.1705ZM11.5226 14.0077L11.3268 8.75681L11.2901 7.3125H12.7099L12.4651 14.0077H11.5226Z" fill="#5C667B"/>
<path d="M12 22C6.48592 22 2 17.5141 2 12C2 6.48592 6.48592 2 12 2C17.5141 2 22 6.48592 22 12C22 17.5141 17.5141 22 12 22ZM12 2.91799C6.99388 2.91799 2.91799 6.99388 2.91799 12C2.91799 17.0061 6.99388 21.082 12 21.082C17.0061 21.082 21.082 17.0061 21.082 12C21.082 6.99388 17.0061 2.91799 12 2.91799Z" fill="#5C667B"/>
</svg>
