<svg width="16" height="15" viewBox="0 0 16 15" fill="none" xmlns="http://www.w3.org/2000/svg">
<path fill-rule="evenodd" clip-rule="evenodd" d="M11.2842 4.21542C11.4985 4.42973 11.4985 4.7772 11.2842 4.99151L5.49152 10.7842C5.27721 10.9985 4.92974 10.9985 4.71542 10.7842C4.50111 10.5699 4.50111 10.2225 4.71542 10.0081L10.5081 4.21542C10.7224 4.00111 11.0699 4.00111 11.2842 4.21542Z" fill="#F05050"/>
<path fill-rule="evenodd" clip-rule="evenodd" d="M4.71542 4.21542C4.92974 4.00111 5.27721 4.00111 5.49152 4.21542L11.2842 10.0081C11.4985 10.2225 11.4985 10.5699 11.2842 10.7842C11.0699 10.9985 10.7224 10.9985 10.5081 10.7842L4.71542 4.99151C4.50111 4.7772 4.50111 4.42973 4.71542 4.21542Z" fill="#F05050"/>
<path fill-rule="evenodd" clip-rule="evenodd" d="M0.5 7.5C0.5 3.35787 3.85787 0 8 0C12.1421 0 15.5 3.35787 15.5 7.5C15.5 11.6421 12.1421 15 8 15C3.85787 15 0.5 11.6421 0.5 7.5ZM8 1.09756C4.46403 1.09756 1.59756 3.96403 1.59756 7.5C1.59756 11.036 4.46403 13.9024 8 13.9024C11.536 13.9024 14.4024 11.036 14.4024 7.5C14.4024 3.96403 11.536 1.09756 8 1.09756Z" fill="#F05050"/>
</svg>
