<svg width="32" height="28" viewBox="0 0 32 28" fill="none" xmlns="http://www.w3.org/2000/svg">
<rect width="32" height="28" fill="white"/>
<path d="M12.5142 13.0208C12.6425 13.0208 12.7658 13.0701 12.8645 13.1639L19.8557 20.1551C20.0481 20.3475 20.0481 20.6633 19.8557 20.8557C19.6633 21.0481 19.3475 21.0481 19.1551 20.8557L12.1639 13.8595C11.9715 13.6671 11.9715 13.3563 12.1639 13.1639C12.2625 13.0652 12.3859 13.0208 12.5142 13.0208Z" fill="#C4C8CA"/>
<path d="M19.5054 5.99931C19.6337 5.99931 19.757 6.04865 19.8557 6.14239C20.0481 6.33481 20.0481 6.64564 19.8557 6.83806L12.8595 13.8342C12.6671 14.0266 12.3563 14.0266 12.1639 13.8342C11.9715 13.6418 11.9715 13.331 12.1639 13.1385L19.1551 6.14732C19.2538 6.04865 19.3771 6.00424 19.5054 6.00424L19.5054 5.99931Z" fill="#C4C8CA"/>
</svg>
