<svg width="20" height="20" viewBox="0 0 20 20" fill="none" xmlns="http://www.w3.org/2000/svg">
<path fill-rule="evenodd" clip-rule="evenodd" d="M5.24243 9.0293C5.24243 8.47701 5.69015 8.0293 6.24243 8.0293H6.25244C6.80473 8.0293 7.25244 8.47701 7.25244 9.0293C7.25244 9.58158 6.80473 10.0293 6.25244 10.0293H6.24243C5.69015 10.0293 5.24243 9.58158 5.24243 9.0293Z" fill="#4876EF"/>
<path fill-rule="evenodd" clip-rule="evenodd" d="M17.6428 17.6689C17.9357 17.376 18.4105 17.376 18.7034 17.6689L19.6204 18.5859C19.9133 18.8788 19.9133 19.3536 19.6204 19.6465C19.3275 19.9394 18.8527 19.9394 18.5598 19.6465L17.6428 18.7295C17.3499 18.4367 17.3499 17.9618 17.6428 17.6689Z" fill="#4876EF"/>
<path fill-rule="evenodd" clip-rule="evenodd" d="M2.65582 2.65582C1.92909 3.38255 1.5 4.53358 1.5 6.25195V10.8369C1.5 13.0647 1.95216 14.159 2.61937 14.7428C3.31134 15.3483 4.43123 15.5889 6.25195 15.5889H6.71045C6.72656 15.5889 6.74266 15.5894 6.75874 15.5904C7.23713 15.6213 7.69802 15.839 8.02014 16.2255C8.02834 16.2354 8.03629 16.2454 8.04398 16.2557L9.41946 18.0897C9.43371 18.1087 9.44705 18.1283 9.45943 18.1486C9.49814 18.2119 9.55037 18.2642 9.61409 18.3031L9.62572 18.3102L9.62566 18.3103C9.8779 18.4709 10.2225 18.3963 10.3875 18.137C10.6099 17.7876 11.0735 17.6845 11.4229 17.9069C11.7724 18.1293 11.8754 18.5929 11.653 18.9423C11.0489 19.8916 9.78348 20.1845 8.82596 19.5794C8.57349 19.4239 8.36031 19.2144 8.20062 18.9646L6.85936 17.1762C6.81755 17.131 6.7561 17.0977 6.67954 17.0889H6.25195C4.40471 17.0889 2.77362 16.8709 1.63161 15.8717C0.464829 14.8508 0 13.1941 0 10.8369V6.25195C0 4.30236 0.487906 2.70241 1.59516 1.59516C2.70241 0.487906 4.30236 0 6.25195 0H13.5879C15.5375 0 17.1374 0.487906 18.2447 1.59516C19.3519 2.70241 19.8398 4.30236 19.8398 6.25195V10.8369C19.8398 11.2511 19.5041 11.5869 19.0898 11.5869C18.6756 11.5869 18.3398 11.2511 18.3398 10.8369V6.25195C18.3398 4.53358 17.9108 3.38255 17.184 2.65582C16.4573 1.92909 15.3063 1.5 13.5879 1.5H6.25195C4.53358 1.5 3.38255 1.92909 2.65582 2.65582Z" fill="#4876EF"/>
<path fill-rule="evenodd" clip-rule="evenodd" d="M15.6052 13.4473C14.3989 13.4473 13.4209 14.4253 13.4209 15.6317C13.4209 16.8381 14.3988 17.816 15.6052 17.816C16.8117 17.816 17.7897 16.8381 17.7897 15.6317C17.7897 14.4253 16.8116 13.4473 15.6052 13.4473ZM11.9209 15.6317C11.9209 13.5969 13.5704 11.9473 15.6052 11.9473C17.6401 11.9473 19.2897 13.5969 19.2897 15.6317C19.2897 17.6666 17.64 19.316 15.6052 19.316C13.5704 19.316 11.9209 17.6665 11.9209 15.6317Z" fill="#4876EF"/>
<path fill-rule="evenodd" clip-rule="evenodd" d="M12.5879 9.0293C12.5879 8.47701 13.0356 8.0293 13.5879 8.0293H13.5979C14.1502 8.0293 14.5979 8.47701 14.5979 9.0293C14.5979 9.58158 14.1502 10.0293 13.5979 10.0293H13.5879C13.0356 10.0293 12.5879 9.58158 12.5879 9.0293Z" fill="#4876EF"/>
<path fill-rule="evenodd" clip-rule="evenodd" d="M8.91064 9.0293C8.91064 8.47701 9.35836 8.0293 9.91064 8.0293H9.92065C10.4729 8.0293 10.9207 8.47701 10.9207 9.0293C10.9207 9.58158 10.4729 10.0293 9.92065 10.0293H9.91064C9.35836 10.0293 8.91064 9.58158 8.91064 9.0293Z" fill="#4876EF"/>
</svg>
