<svg width="20" height="20" viewBox="0 0 20 20" fill="none" xmlns="http://www.w3.org/2000/svg">
<path fill-rule="evenodd" clip-rule="evenodd" d="M1.69613 1.9266C2.92314 0.699586 4.75923 0.230469 7.12594 0.230469H8.96489C9.34575 0.230469 9.6545 0.539216 9.6545 0.920076C9.6545 1.30094 9.34575 1.60968 8.96489 1.60968H7.12594C4.89526 1.60968 3.51319 2.06004 2.67138 2.90185C1.82957 3.74366 1.37921 5.12573 1.37921 7.35641V12.8733C1.37921 15.1039 1.82957 16.486 2.67138 17.3278C3.51319 18.1696 4.89526 18.62 7.12594 18.62H12.6428C14.8735 18.62 16.2555 18.1696 17.0974 17.3278C17.9392 16.486 18.3895 15.1039 18.3895 12.8733V11.0343C18.3895 10.6535 18.6983 10.3447 19.0791 10.3447C19.46 10.3447 19.7687 10.6535 19.7687 11.0343V12.8733C19.7687 15.24 19.2996 17.0761 18.0726 18.3031C16.8456 19.5301 15.0095 19.9992 12.6428 19.9992H7.12594C4.75923 19.9992 2.92314 19.5301 1.69613 18.3031C0.469118 17.0761 0 15.24 0 12.8733V7.35641C0 4.9897 0.469118 3.15361 1.69613 1.9266Z" fill="#4876EF"/>
<path fill-rule="evenodd" clip-rule="evenodd" d="M15.5822 0.0137614C16.6059 -0.0867244 17.6209 0.362841 18.629 1.37098C19.6371 2.37912 20.0867 3.39404 19.9862 4.41773C19.8893 5.40525 19.2937 6.22368 18.629 6.88839L11.3835 14.1339C11.3743 14.1431 11.3647 14.1522 11.3549 14.1609C10.923 14.5461 10.3889 14.8127 9.82009 14.9288C9.8067 14.9315 9.79323 14.9339 9.7797 14.9358L7.04304 15.3267C6.76351 15.39 6.46485 15.3877 6.1867 15.3198C5.11779 15.0787 4.45284 14.0283 4.67212 12.9647L5.06419 10.2202C5.06548 10.2112 5.06695 10.2022 5.0686 10.1932C5.17504 9.61367 5.44618 9.07248 5.84592 8.63748C5.85249 8.63033 5.8592 8.62332 5.86607 8.61646L13.1115 1.37098C13.7763 0.706267 14.5947 0.110696 15.5822 0.0137614ZM15.717 1.38638C15.2057 1.43656 14.6726 1.76046 14.0868 2.34624L6.85247 9.58056C6.63478 9.82108 6.48727 10.1172 6.42744 10.43L6.03417 13.1829C6.03172 13.2001 6.02862 13.2171 6.02489 13.234C5.94985 13.5739 6.16082 13.9017 6.49316 13.975L6.51174 13.9794C6.58583 13.9979 6.67322 13.9979 6.74731 13.9794C6.7703 13.9737 6.79358 13.9691 6.81705 13.9658L9.56281 13.5736C9.88209 13.5051 10.1818 13.3548 10.4233 13.1436L17.6538 5.91314C18.2395 5.32736 18.5634 4.7942 18.6136 4.28299C18.6602 3.80797 18.4846 3.17705 17.6538 2.34624C16.8229 1.51543 16.192 1.33975 15.717 1.38638Z" fill="#4876EF"/>
<path fill-rule="evenodd" clip-rule="evenodd" d="M12.3738 2.23281C12.7405 2.13 13.1211 2.34395 13.2239 2.71067C13.775 4.67644 15.3225 6.22388 17.2883 6.77496C17.655 6.87777 17.8689 7.25839 17.7661 7.62512C17.6633 7.99184 17.2827 8.20579 16.916 8.10298C14.4867 7.42196 12.5769 5.51229 11.8959 3.08296C11.7931 2.71624 12.007 2.33561 12.3738 2.23281Z" fill="#4876EF"/>
</svg>
