<svg width="18" height="10" viewBox="0 0 18 10" fill="none" xmlns="http://www.w3.org/2000/svg">
<g id="ic/icon20">
<path id="Rectangle 151" d="M3 4.97161C3 4.64211 3.26711 4.375 3.59661 4.375H17.4031C17.7326 4.375 17.9997 4.64211 17.9997 4.97161C17.9997 5.30111 17.7326 5.56822 17.4031 5.56822H3.59661C3.26711 5.56822 3 5.30111 3 4.97161Z" fill="white"/>
<path id="Rectangle 155" d="M12.7799 9.57812C12.5462 9.34513 12.5462 8.96737 12.7799 8.73438L16.7303 4.79696C16.9641 4.56397 17.3431 4.56397 17.5768 4.79696C17.8106 5.02995 17.8106 5.4077 17.5768 5.64069L13.6265 9.57812C13.3927 9.81111 13.0137 9.81111 12.7799 9.57812Z" fill="white"/>
<path id="Rectangle 156" d="M12.7794 0.421867C13.0131 0.188876 13.3921 0.188876 13.6259 0.421867L17.5763 4.35929C17.81 4.59228 17.81 4.97003 17.5763 5.20302C17.3425 5.43601 16.9635 5.43601 16.7298 5.20302L12.7794 1.2656C12.5456 1.03261 12.5456 0.654857 12.7794 0.421867Z" fill="white"/>
</g>
</svg>
