<svg width="24" height="24" viewBox="0 0 24 24" fill="none" xmlns="http://www.w3.org/2000/svg">
<path fill-rule="evenodd" clip-rule="evenodd" d="M2.25 17.7575C2.25 15.6035 4.18405 14 6.38631 14H13.2044C15.4067 14 17.3407 15.6035 17.3407 17.7575V19.2727C17.3407 19.6743 17.0151 19.9999 16.6135 19.9999C16.2118 19.9999 15.8862 19.6743 15.8862 19.2727V17.7575C15.8862 16.5631 14.7691 15.4545 13.2044 15.4545H6.38631C4.82158 15.4545 3.70453 16.5631 3.70453 17.7575V19.2727C3.70453 19.6743 3.37892 19.9999 2.97726 19.9999C2.57561 19.9999 2.25 19.6743 2.25 19.2727V17.7575Z" fill="#373F57"/>
<path fill-rule="evenodd" clip-rule="evenodd" d="M9.79527 5.45453C8.43968 5.45453 7.34076 6.55345 7.34076 7.90904C7.34076 9.26463 8.43968 10.3636 9.79527 10.3636C11.1509 10.3636 12.2498 9.26463 12.2498 7.90904C12.2498 6.55345 11.1509 5.45453 9.79527 5.45453ZM5.88623 7.90904C5.88623 5.75014 7.63637 4 9.79527 4C11.9542 4 13.7043 5.75014 13.7043 7.90904C13.7043 10.0679 11.9542 11.8181 9.79527 11.8181C7.63637 11.8181 5.88623 10.0679 5.88623 7.90904Z" fill="#373F57"/>
<path fill-rule="evenodd" clip-rule="evenodd" d="M17.7219 14.5694C17.8092 14.1773 18.1977 13.9303 18.5898 14.0175C20.4426 14.43 21.8863 15.8985 21.8863 17.7241V19.2728C21.8863 19.6745 21.5607 20.0001 21.159 20.0001C20.7573 20.0001 20.4317 19.6745 20.4317 19.2728V17.7241C20.4317 16.7312 19.6209 15.7372 18.2737 15.4373C17.8817 15.35 17.6346 14.9614 17.7219 14.5694Z" fill="#373F57"/>
<path fill-rule="evenodd" clip-rule="evenodd" d="M15.0179 4.48782C15.1502 4.1086 15.5649 3.90846 15.9442 4.04081C16.8339 4.35135 17.4805 5.09406 17.852 5.94684C18.2262 6.80598 18.3536 7.84107 18.1606 8.86105C17.9116 10.185 17.1175 11.3709 15.9427 11.7782C15.5633 11.9097 15.1489 11.7087 15.0174 11.3293C14.8858 10.9498 15.0868 10.5355 15.4663 10.4039C15.9966 10.22 16.5448 9.58324 16.7312 8.59185L16.7314 8.59099C16.8709 7.85395 16.7746 7.11562 16.5185 6.52769C16.2595 5.93328 15.8691 5.55518 15.4649 5.41411C15.0856 5.28176 14.8855 4.86705 15.0179 4.48782Z" fill="#373F57"/>
</svg>
