<svg width="24" height="24" viewBox="0 0 24 24" fill="none" xmlns="http://www.w3.org/2000/svg">
<path d="M10.1667 3.93336C8.73272 4.26578 7.41383 4.97579 6.34679 5.98975C5.27976 7.00371 4.50343 8.28469 4.09835 9.69981C3.69326 11.1149 3.67416 12.6127 4.04304 14.0377C4.41191 15.4627 5.15532 16.763 6.19615 17.8039C7.23699 18.8447 8.53735 19.5881 9.96234 19.957C11.3873 20.3258 12.8851 20.3068 14.3002 19.9017C15.7153 19.4966 16.9963 18.7203 18.0103 17.6532C19.0242 16.5862 19.7342 15.2673 20.0667 13.8334C20.0667 13.5902 19.9701 13.3571 19.7982 13.1852C19.6263 13.0133 19.3931 12.9167 19.15 12.9167H12.9167C12.4304 12.9167 11.9641 12.7235 11.6203 12.3797C11.2765 12.0359 11.0833 11.5696 11.0833 11.0834V4.66669C11.0719 4.55809 11.0391 4.45283 10.9867 4.35701C10.9343 4.2612 10.8635 4.17673 10.7782 4.10852C10.6929 4.0403 10.595 3.98969 10.49 3.95963C10.385 3.92956 10.2751 3.92063 10.1667 3.93336Z" stroke="#2C3E50" stroke-width="1.5" stroke-linecap="round" stroke-linejoin="round"/>
<path d="M14.75 4.20801C15.9139 4.61783 16.9711 5.28353 17.8436 6.15607C18.7161 7.02861 19.3818 8.08576 19.7917 9.24967H15.6667C15.4236 9.24967 15.1904 9.1531 15.0185 8.98119C14.8466 8.80928 14.75 8.57612 14.75 8.33301V4.20801Z" stroke="#2C3E50" stroke-width="1.5" stroke-linecap="round" stroke-linejoin="round"/>
</svg>
