<svg width="24" height="24" viewBox="0 0 24 24" fill="none" xmlns="http://www.w3.org/2000/svg">
<path d="M17.0002 3.34002C18.5085 4.21088 19.7632 5.46057 20.64 6.96536C21.5169 8.47015 21.9856 10.1779 21.9997 11.9195C22.0137 13.661 21.5727 15.3761 20.7203 16.8949C19.8678 18.4136 18.6334 19.6834 17.1394 20.5785C15.6454 21.4737 13.9435 21.9631 12.2022 21.9983C10.4609 22.0335 8.74063 21.6134 7.21162 20.7795C5.6826 19.9455 4.3979 18.7267 3.48468 17.2437C2.57147 15.7607 2.06141 14.0649 2.005 12.3241L2 12.0001L2.005 11.6761C2.07232 9.59529 2.7874 7.58736 4.0505 5.93238C5.3136 4.2774 7.06174 3.05791 9.05109 2.44401C8.96932 2.87753 8.98418 3.32375 9.0946 3.75087C9.20501 4.17799 9.40827 4.57551 9.68989 4.91509C9.9715 5.25467 10.3246 5.52797 10.7239 5.7155C11.1232 5.90304 11.559 6.00019 12.0001 6.00005C12.2653 6.00005 12.5197 5.89469 12.7072 5.70715C12.8948 5.51961 13.0001 5.26526 13.0001 5.00004C13.0001 4.73482 12.8948 4.48046 12.7072 4.29292C12.5197 4.10538 12.2653 4.00002 12.0001 4.00002L11.8831 3.99302C11.63 3.96292 11.398 3.83731 11.2344 3.64185C11.0708 3.4464 10.988 3.19585 11.0029 2.94141C11.0179 2.68696 11.1294 2.44782 11.3147 2.27285C11.5001 2.09788 11.7452 2.00028 12.0001 2C13.7261 2 15.4532 2.44701 17.0002 3.34002ZM15.2002 14.2861C15.0108 14.1005 14.7554 13.9977 14.4903 14.0003C14.2251 14.003 13.9718 14.1108 13.7861 14.3001C13.5534 14.5378 13.2755 14.7266 12.9688 14.8555C12.6621 14.9844 12.3328 15.0508 12.0001 15.0508C11.6675 15.0508 11.3381 14.9844 11.0314 14.8555C10.7248 14.7266 10.4469 14.5378 10.2141 14.3001C10.0275 14.1152 9.7756 14.0111 9.51285 14.0103C9.25011 14.0096 8.99763 14.1123 8.81001 14.2963C8.62239 14.4802 8.5147 14.7306 8.51022 14.9933C8.50575 15.256 8.60484 15.5099 8.78608 15.7002C9.20507 16.1277 9.70514 16.4674 10.257 16.6992C10.8089 16.9311 11.4015 17.0505 12.0001 17.0505C12.5987 17.0505 13.1913 16.9311 13.7432 16.6992C14.2951 16.4674 14.7952 16.1277 15.2142 15.7002C15.3998 15.5108 15.5026 15.2554 15.5 14.9903C15.4973 14.7251 15.3895 14.4718 15.2002 14.2861ZM9.01009 9.00008L8.88308 9.00709C8.62999 9.03719 8.39793 9.1628 8.23434 9.35826C8.07075 9.55371 7.98796 9.80426 8.0029 10.0587C8.01784 10.3131 8.12937 10.5523 8.31471 10.7273C8.50005 10.9022 8.7452 10.9998 9.00009 11.0001L9.12709 10.9931C9.38019 10.963 9.61224 10.8374 9.77583 10.6419C9.93942 10.4465 10.0222 10.1959 10.0073 9.94149C9.99233 9.68705 9.8808 9.44791 9.69546 9.27294C9.51012 9.09797 9.26497 9.00037 9.01009 9.00008ZM15.0102 9.00008L14.8832 9.00709C14.6301 9.03719 14.398 9.1628 14.2344 9.35826C14.0708 9.55371 13.988 9.80426 14.003 10.0587C14.0179 10.3131 14.1294 10.5523 14.3148 10.7273C14.5001 10.9022 14.7453 10.9998 15.0002 11.0001L15.1272 10.9931C15.3803 10.963 15.6123 10.8374 15.7759 10.6419C15.9395 10.4465 16.0223 10.1959 16.0073 9.94149C15.9924 9.68705 15.8809 9.44791 15.6955 9.27294C15.5102 9.09797 15.265 9.00037 15.0102 9.00008Z" fill="#444444"/>
</svg>
