<svg width="7" height="7" viewBox="0 0 7 7" fill="none" xmlns="http://www.w3.org/2000/svg">
<g id="Group 1252">
<path id="Line 10 (Stroke)" fill-rule="evenodd" clip-rule="evenodd" d="M1.13453 0.75C1.38235 0.75 1.58325 0.930808 1.58325 1.15385L1.58325 6.17949C1.58325 6.40252 1.38235 6.58333 1.13453 6.58333C0.886714 6.58333 0.685816 6.40252 0.685816 6.17949L0.685816 1.15385C0.685816 0.930808 0.886714 0.75 1.13453 0.75Z" fill="#373F57"/>
<path id="Line 10 (Stroke)_2" fill-rule="evenodd" clip-rule="evenodd" d="M6.25 6.13453C6.25 6.38235 6.06919 6.58325 5.84615 6.58325L1.40385 6.58325C1.18081 6.58325 1 6.38235 1 6.13453C1 5.88671 1.18081 5.68581 1.40385 5.68581L5.84615 5.68582C6.06919 5.68582 6.25 5.88671 6.25 6.13453Z" fill="#373F57"/>
</g>
</svg>
