<svg width="24" height="24" viewBox="0 0 24 24" fill="none" xmlns="http://www.w3.org/2000/svg">
<path fill-rule="evenodd" clip-rule="evenodd" d="M5.71779 4.25765C5.53581 4.08808 5.29511 3.99576 5.0464 4.00015C4.7977 4.00454 4.5604 4.10529 4.38451 4.28118C4.20863 4.45707 4.10787 4.69436 4.10349 4.94306C4.0991 5.19177 4.19142 5.43247 4.36099 5.61445L5.42339 6.67685C4.15405 7.71612 3.14578 9.03826 2.47939 10.5373L2.14659 11.2861C2.04994 11.5035 2 11.7388 2 11.9767C2 12.2146 2.04994 12.4499 2.14659 12.6673L2.47939 13.4161C3.0691 14.7427 3.92735 15.9327 5 16.911C6.07265 17.8893 7.33642 18.6347 8.71158 19.1002C10.0867 19.5656 11.5434 19.741 12.9898 19.6153C14.4361 19.4895 15.8407 19.0654 17.1149 18.3697L18.441 19.6945C18.5289 19.7888 18.6349 19.8644 18.7526 19.9169C18.8704 19.9694 18.9975 19.9976 19.1264 19.9999C19.2553 20.0021 19.3833 19.9784 19.5029 19.9301C19.6224 19.8818 19.731 19.81 19.8222 19.7188C19.9133 19.6277 19.9852 19.5191 20.0335 19.3995C20.0818 19.28 20.1055 19.152 20.1032 19.0231C20.1009 18.8942 20.0727 18.767 20.0202 18.6493C19.9678 18.5315 19.8921 18.4255 19.7978 18.3377L5.71779 4.25765ZM15.6864 16.9399L14.0301 15.2849C13.2966 15.7183 12.4398 15.8955 11.5946 15.7886C10.7493 15.6817 9.96364 15.2967 9.3612 14.6942C8.75876 14.0918 8.37377 13.3061 8.26685 12.4609C8.15993 11.6156 8.33714 10.7588 8.77059 10.0253L6.78787 8.04261C5.68094 8.90884 4.80363 10.0336 4.23299 11.3181L3.93987 11.9761L4.23427 12.6353C4.69672 13.6756 5.36146 14.6136 6.1898 15.3947C7.01814 16.1757 7.99355 16.7843 9.05926 17.1849C10.125 17.5854 11.2597 17.7701 12.3974 17.728C13.5352 17.686 14.6532 17.4181 15.6864 16.9399ZM10.2234 11.4781C10.1363 11.804 10.1364 12.147 10.2238 12.4728C10.3112 12.7986 10.4827 13.0957 10.7213 13.3342C10.9598 13.5727 11.2568 13.7443 11.5826 13.8317C11.9084 13.919 12.2515 13.9192 12.5773 13.8321L10.2234 11.4781ZM12.3456 8.14501L15.9092 11.7085C15.8447 10.7847 15.4486 9.91526 14.7937 9.26042C14.1389 8.60558 13.2695 8.20945 12.3456 8.14501ZM19.9232 12.6353C19.6184 13.3221 19.2246 13.9659 18.752 14.5501L20.1152 15.9146C20.7515 15.1595 21.2781 14.3183 21.6794 13.4161L22.0122 12.6673C22.109 12.4497 22.1591 12.2142 22.1591 11.9761C22.1591 11.7379 22.109 11.5024 22.0122 11.2849L21.6794 10.5373C20.6344 8.18707 18.7636 6.3018 16.4214 5.23877C14.0793 4.17574 11.4285 4.00883 8.97155 4.76965L10.5562 6.35685C12.4481 6.01576 14.3997 6.31941 16.0985 7.21917C17.7973 8.11893 19.145 9.56275 19.9258 11.3194L20.2176 11.9773L19.9258 12.6365L19.9232 12.6353Z" fill="black"/>
</svg>
