<svg width="24" height="24" viewBox="0 0 24 24" fill="none" xmlns="http://www.w3.org/2000/svg">
<path fill-rule="evenodd" clip-rule="evenodd" d="M15.1952 11.6674C15.481 11.9532 15.481 12.4165 15.1952 12.7022L11.4878 16.4097C11.3506 16.5469 11.1644 16.624 10.9704 16.624C10.7763 16.624 10.5902 16.5469 10.453 16.4097L9.0627 15.0194C8.77695 14.7336 8.77695 14.2703 9.0627 13.9846C9.34845 13.6988 9.81175 13.6988 10.0975 13.9846L10.9704 14.8575L14.1604 11.6674C14.4462 11.3817 14.9095 11.3817 15.1952 11.6674Z" fill="#373F57"/>
<path fill-rule="evenodd" clip-rule="evenodd" d="M10.1524 2.00016C10.1757 2.00023 10.1981 2.0003 10.2197 2.0003H13.9271C13.9487 2.0003 13.9712 2.00023 13.9945 2.00016C14.4037 1.9989 15.0703 1.99684 15.6074 2.3549C16.2568 2.7878 16.5126 3.56223 16.5126 4.58572C16.5126 4.60729 16.5126 4.62976 16.5127 4.65307C16.514 5.06232 16.516 5.72894 16.158 6.26603C15.7251 6.91537 14.9506 7.17115 13.9271 7.17115H10.2197C10.1981 7.17115 10.1757 7.17122 10.1524 7.17129C9.74311 7.17255 9.07649 7.17461 8.53939 6.81655C7.89006 6.38365 7.63428 5.60922 7.63428 4.58572C7.63428 3.56223 7.89006 2.7878 8.53939 2.3549C9.07649 1.99684 9.74311 1.9989 10.1524 2.00016ZM9.35116 3.57255C9.30535 3.60308 9.0977 3.7555 9.0977 4.58572C9.0977 5.41595 9.30535 5.56837 9.35116 5.5989C9.47862 5.68388 9.69309 5.70773 10.2197 5.70773H13.9271C14.7574 5.70773 14.9098 5.50008 14.9403 5.45427C15.0253 5.32681 15.0491 5.11234 15.0491 4.58572C15.0491 3.7555 14.8415 3.60308 14.7957 3.57255C14.6682 3.48757 14.4537 3.46372 13.9271 3.46372H10.2197C9.69309 3.46372 9.47862 3.48757 9.35116 3.57255Z" fill="#373F57"/>
<path fill-rule="evenodd" clip-rule="evenodd" d="M9.09664 4.56431C9.11845 4.96783 8.80902 5.31263 8.40549 5.33445C6.9197 5.41476 6.00404 5.7267 5.4289 6.34926C4.8456 6.98065 4.46342 8.09246 4.46342 10.1464V15.7075C4.46342 17.5483 4.70618 18.6892 5.32509 19.3966C5.92286 20.0797 7.0388 20.537 9.29285 20.537H14.854C17.108 20.537 18.224 20.0797 18.8218 19.3966C19.4407 18.6892 19.6834 17.5483 19.6834 15.7075V10.1464C19.6834 8.08733 19.3011 6.97609 18.7183 6.34615C18.1436 5.72489 17.2284 5.41482 15.7414 5.33445C15.3378 5.31263 15.0284 4.96783 15.0502 4.56431C15.072 4.16078 15.4168 3.85134 15.8203 3.87316C17.4198 3.95961 18.8217 4.30297 19.7925 5.35236C20.7553 6.39307 21.1469 7.96971 21.1469 10.1464V15.7075C21.1469 17.5742 20.9262 19.2138 19.9231 20.3602C18.8989 21.5308 17.2342 22.0004 14.854 22.0004H9.29285C6.91262 22.0004 5.24799 21.5308 4.22376 20.3602C3.22067 19.2138 3 17.5742 3 15.7075V10.1464C3 7.97385 3.39175 6.39778 4.35398 5.35621C5.32437 4.3058 6.72586 3.95968 8.3265 3.87316C8.73003 3.85134 9.07483 4.16078 9.09664 4.56431Z" fill="#373F57"/>
</svg>
