<svg width="24" height="24" viewBox="0 0 24 24" fill="none" xmlns="http://www.w3.org/2000/svg">
<path d="M3.49824 21C3.3716 21 3.24495 20.9533 3.14497 20.8534C2.95168 20.6601 2.95168 20.3402 3.14497 20.1469L20.1485 3.14496C20.3418 2.95168 20.6617 2.95168 20.855 3.14496C21.0483 3.33824 21.0483 3.65815 20.855 3.85143L3.85151 20.8534C3.75153 20.9533 3.62488 21 3.49824 21Z" fill="#e0dfe1"/>
<path d="M20.5018 21C20.3751 21 20.2485 20.9533 20.1485 20.8534L3.14497 3.85143C2.95168 3.65815 2.95168 3.33824 3.14497 3.14496C3.33827 2.95168 3.65821 2.95168 3.85151 3.14496L20.855 20.1469C21.0483 20.3402 21.0483 20.6601 20.855 20.8534C20.755 20.9533 20.6284 21 20.5018 21Z" fill="#e0dfe1"/>
</svg>
