<svg width="24" height="24" viewBox="0 0 24 24" fill="none" xmlns="http://www.w3.org/2000/svg">
<path fill-rule="evenodd" clip-rule="evenodd" d="M20.4914 5.4436C20.413 4.30795 19.4262 3.43983 18.2828 3.50749C18.268 3.50836 18.2532 3.5088 18.2384 3.5088H12.2287C12.2139 3.5088 12.1991 3.50836 12.1842 3.50748C11.2671 3.45313 10.4292 4.00183 10.1171 4.85829C10.0213 5.13374 9.97575 5.44381 9.97575 5.76177V9.36754C9.97575 9.37618 9.97561 9.38482 9.97531 9.39345C9.95478 9.98876 10.1706 10.573 10.5788 11.0175C11.0233 11.4256 11.6075 11.6415 12.2028 11.621C12.4066 11.6139 12.6045 11.69 12.7511 11.8316C12.8978 11.9733 12.9806 12.1685 12.9806 12.3724V13.3742L15.417 11.7471C15.5406 11.6646 15.6859 11.6205 15.8345 11.6205H18.2384C18.5646 11.6205 18.8658 11.5753 19.1419 11.4792C19.9983 11.1671 20.547 10.3292 20.4927 9.41202C20.4918 9.39721 20.4914 9.38237 20.4914 9.36754V5.4436ZM18.2175 2.00505C20.1822 1.90146 21.8771 3.40376 21.9938 5.37527C21.9947 5.39006 21.9951 5.40487 21.9951 5.41968V9.34657C22.0779 10.9153 21.1325 12.3575 19.6502 12.8944L19.6425 12.8972C19.18 13.0591 18.7058 13.1243 18.2384 13.1243H16.0625L13.5801 14.7821C12.9441 15.206 12.1034 15.0076 11.6968 14.391C11.5329 14.1507 11.4768 13.8859 11.4768 13.6575V13.0699C10.7545 12.9437 10.0771 12.6086 9.5325 12.0981C9.52071 12.087 9.50928 12.0756 9.49822 12.0638C8.81067 11.3304 8.44114 10.356 8.472 9.3553V5.76177C8.472 5.30457 8.53699 4.82092 8.69913 4.35768L8.70182 4.34999C9.23873 2.86765 10.681 1.9223 12.2497 2.00505H18.2175Z" fill="#373F57"/>
<path fill-rule="evenodd" clip-rule="evenodd" d="M4.40764 6.14449C3.87508 6.63901 3.50375 7.45305 3.50375 8.76594V13.7586C3.50375 15.0714 3.87508 15.8855 4.40764 16.38C4.95029 16.8839 5.77952 17.1672 6.91242 17.1672H15.2335C16.3664 17.1672 17.1957 16.8839 17.7383 16.38C18.2709 15.8855 18.6422 15.0714 18.6422 13.7586V13.1051C18.5088 13.1173 18.3741 13.1236 18.2384 13.1236H16.0625L13.58 14.7814C13.5614 14.7938 13.5422 14.8054 13.5225 14.8162C13.3518 14.9093 13.1199 14.9981 12.8496 15.0004C12.1009 15.0157 11.4768 14.4126 11.4768 13.6569V13.0692C10.7544 12.9431 10.077 12.6079 9.53246 12.0974C9.52067 12.0864 9.50924 12.0749 9.49818 12.0631C8.81063 11.3297 8.4411 10.3553 8.47196 9.35464V5.7611C8.47196 5.6269 8.47734 5.49214 8.48884 5.35727H6.91242C5.77952 5.35727 4.95029 5.6406 4.40764 6.14449ZM3.38441 5.04255C4.29795 4.19426 5.549 3.85352 6.91242 3.85352H9.40875C9.65241 3.85352 9.88097 3.9716 10.022 4.17033C10.163 4.36905 10.1989 4.62379 10.1184 4.85377C10.0214 5.13098 9.97571 5.43341 9.97571 5.7611V9.36687C9.97571 9.37551 9.97556 9.38415 9.97527 9.39278C9.95474 9.98809 10.1706 10.5723 10.5787 11.0169C11.0233 11.425 11.6074 11.6408 12.2028 11.6203C12.4065 11.6133 12.6044 11.6893 12.7511 11.831C12.8977 11.9726 12.9806 12.1678 12.9806 12.3717V13.3735L15.4169 11.7464C15.5405 11.6639 15.6858 11.6198 15.8345 11.6198H18.2384C18.5539 11.6198 18.8639 11.5686 19.1617 11.4718C19.3906 11.3974 19.6413 11.4371 19.836 11.5785C20.0307 11.72 20.1459 11.9462 20.1459 12.1868V13.7586C20.1459 15.3581 19.6852 16.6243 18.7615 17.4819C17.848 18.3302 16.5969 18.671 15.2335 18.671H6.91242C5.549 18.671 4.29795 18.3302 3.38441 17.4819C2.46078 16.6243 2 15.3581 2 13.7586V8.76594C2 7.16644 2.46078 5.90021 3.38441 5.04255Z" fill="#373F57"/>
<path fill-rule="evenodd" clip-rule="evenodd" d="M6.99292 21.248C6.99292 20.8327 7.32955 20.4961 7.7448 20.4961H14.4017C14.8169 20.4961 15.1536 20.8327 15.1536 21.248C15.1536 21.6632 14.8169 21.9998 14.4017 21.9998H7.7448C7.32955 21.9998 6.99292 21.6632 6.99292 21.248Z" fill="#373F57"/>
<path fill-rule="evenodd" clip-rule="evenodd" d="M11.0732 17.168C11.4884 17.168 11.825 17.5046 11.825 17.9198V21.2483C11.825 21.6636 11.4884 22.0002 11.0732 22.0002C10.6579 22.0002 10.3213 21.6636 10.3213 21.2483V17.9198C10.3213 17.5046 10.6579 17.168 11.0732 17.168Z" fill="#373F57"/>
<path d="M18.7003 7.61042C18.7003 7.99338 18.3899 8.30384 18.0069 8.30384C17.6239 8.30384 17.3135 7.99338 17.3135 7.61042C17.3135 7.22745 17.6239 6.91699 18.0069 6.91699C18.3899 6.91699 18.7003 7.22745 18.7003 7.61042Z" fill="#373F57"/>
<path d="M16.1119 7.61042C16.1119 7.99338 15.8015 8.30384 15.4185 8.30384C15.0356 8.30384 14.7251 7.99338 14.7251 7.61042C14.7251 7.22745 15.0356 6.91699 15.4185 6.91699C15.8015 6.91699 16.1119 7.22745 16.1119 7.61042Z" fill="#373F57"/>
<path d="M13.5236 7.61042C13.5236 7.99338 13.2131 8.30384 12.8301 8.30384C12.4472 8.30384 12.1367 7.99338 12.1367 7.61042C12.1367 7.22745 12.4472 6.91699 12.8301 6.91699C13.2131 6.91699 13.5236 7.22745 13.5236 7.61042Z" fill="#373F57"/>
</svg>
