<svg width="24" height="24" viewBox="0 0 24 24" fill="none" xmlns="http://www.w3.org/2000/svg">
<path d="M13.5791 2C14.3846 1.99996 15.1596 2.30771 15.7457 2.8603C16.3317 3.41289 16.6845 4.16853 16.7317 4.97263L16.737 5.15789V9.36842H18.8422C19.616 9.3683 20.363 9.6523 20.9412 10.1665C21.5195 10.6807 21.8888 11.3894 21.9791 12.1579L21.9949 12.3411L22.0001 12.5263L21.9791 12.7326L20.9201 18.0295C20.5191 19.7411 19.3391 20.9726 17.9622 20.9558L17.7896 20.9474H9.36855C9.11072 20.9473 8.86188 20.8527 8.66921 20.6814C8.47654 20.51 8.35345 20.274 8.32329 20.0179L8.31592 19.8947L8.31697 9.85684C8.31716 9.67225 8.36589 9.49095 8.45827 9.33114C8.55064 9.17132 8.68342 9.03861 8.84329 8.94632C9.29215 8.68708 9.67025 8.32126 9.94417 7.88119C10.2181 7.44113 10.3794 6.94036 10.4138 6.42316L10.4212 6.21053V5.15789C10.4212 4.32037 10.7539 3.51715 11.3461 2.92493C11.9383 2.33271 12.7415 2 13.5791 2Z" fill="#444444"/>
<path d="M5.15789 9.36816C5.41572 9.3682 5.66457 9.46285 5.85723 9.63418C6.0499 9.80551 6.17299 10.0416 6.20316 10.2976L6.21053 10.4208V19.8945C6.21049 20.1523 6.11584 20.4011 5.94451 20.5938C5.77318 20.7865 5.53711 20.9096 5.28105 20.9397L5.15789 20.9471H4.10526C3.57413 20.9473 3.06256 20.7467 2.67311 20.3855C2.28365 20.0244 2.0451 19.5294 2.00526 18.9997L2 18.8418V11.4734C1.99983 10.9423 2.20043 10.4307 2.56158 10.0413C2.92272 9.65182 3.41773 9.41326 3.94737 9.37343L4.10526 9.36816H5.15789Z" fill="#444444"/>
</svg>
