<svg width="24" height="24" viewBox="0 0 24 24" fill="none" xmlns="http://www.w3.org/2000/svg">
<path fill-rule="evenodd" clip-rule="evenodd" d="M4.18066 13.1402L3.89441 12.4964L4.18066 11.8527C4.83934 10.3704 5.91382 9.111 7.27386 8.22709C8.6339 7.34319 10.2211 6.87272 11.8432 6.87272C13.4652 6.87272 15.0524 7.34319 16.4125 8.22709C17.7725 9.111 18.847 10.3704 19.5057 11.8527L19.7907 12.4964L19.5044 13.1402C18.8456 14.6221 17.7711 15.8811 16.4112 16.7648C15.0513 17.6484 13.4643 18.1187 11.8425 18.1187C10.2208 18.1187 8.63378 17.6484 7.27388 16.7648C5.91398 15.8811 4.83951 14.6221 4.18066 13.1402ZM2.46816 11.0914L2.14316 11.8227C2.04877 12.035 2 12.2647 2 12.4971C2 12.7294 2.04877 12.9591 2.14316 13.1714L2.46816 13.9014C3.27438 15.7146 4.58912 17.2551 6.25307 18.3363C7.91703 19.4174 9.8588 19.9929 11.8432 19.9929C13.8275 19.9929 15.7693 19.4174 17.4332 18.3363C19.0972 17.2551 20.4119 15.7146 21.2182 13.9014L21.5432 13.1714C21.6377 12.959 21.6866 12.729 21.6866 12.4964C21.6866 12.2639 21.6377 12.0339 21.5432 11.8214L21.2182 11.0914C20.4119 9.27824 19.0972 7.73776 17.4332 6.6566C15.7693 5.57544 13.8275 5 11.8432 5C9.8588 5 7.91703 5.57544 6.25307 6.6566C4.58912 7.73776 3.27438 9.27824 2.46816 11.0914ZM13.7182 12.4964C13.7182 12.9937 13.5206 13.4706 13.169 13.8223C12.8173 14.1739 12.3404 14.3714 11.8432 14.3714C11.3459 14.3714 10.869 14.1739 10.5173 13.8223C10.1657 13.4706 9.96815 12.9937 9.96815 12.4964C9.96815 11.9991 10.1657 11.5222 10.5173 11.1706C10.869 10.819 11.3459 10.6214 11.8432 10.6214C12.3404 10.6214 12.8173 10.819 13.169 11.1706C13.5206 11.5222 13.7182 11.9991 13.7182 12.4964ZM15.5932 12.4964C15.5932 13.491 15.1981 14.4448 14.4948 15.1481C13.7915 15.8513 12.8377 16.2464 11.8432 16.2464C10.8486 16.2464 9.89477 15.8513 9.1915 15.1481C8.48824 14.4448 8.09315 13.491 8.09315 12.4964C8.09315 11.5019 8.48824 10.548 9.1915 9.84478C9.89477 9.14152 10.8486 8.74643 11.8432 8.74643C12.8377 8.74643 13.7915 9.14152 14.4948 9.84478C15.1981 10.548 15.5932 11.5019 15.5932 12.4964Z" fill="black"/>
</svg>
