<svg width="24" height="24" viewBox="0 0 24 24" fill="none" xmlns="http://www.w3.org/2000/svg">
<path d="M8.68016 19C8.50376 19 8.33414 18.9322 8.19845 18.8033C7.93385 18.5388 7.93385 18.1115 8.19845 17.847L20.8449 5.19838C21.1095 4.93387 21.537 4.93387 21.8016 5.19838C22.0662 5.46288 22.0662 5.89015 21.8016 6.15466L9.16186 18.7965C9.02617 18.9322 8.85655 18.9932 8.68016 18.9932V19Z" fill="#4876EF"/>
<path d="M8.32972 19C8.15412 19 7.98529 18.9325 7.85022 18.8043L2.19754 13.149C1.93415 12.8858 1.93415 12.4606 2.19754 12.1974C2.46093 11.9342 2.8864 11.9342 3.14978 12.1974L8.80246 17.846C9.06585 18.1092 9.06585 18.5343 8.80246 18.7975C8.66739 18.9325 8.49855 18.9933 8.32296 18.9933L8.32972 19Z" fill="#4876EF"/>
</svg>
