<svg width="19" height="20" viewBox="0 0 19 20" fill="none" xmlns="http://www.w3.org/2000/svg">
<path fill-rule="evenodd" clip-rule="evenodd" d="M12.1952 9.66744C12.481 9.95319 12.481 10.4165 12.1952 10.7022L8.48778 14.4097C8.35056 14.5469 8.16445 14.624 7.97039 14.624C7.77632 14.624 7.59021 14.5469 7.45299 14.4097L6.0627 13.0194C5.77695 12.7336 5.77695 12.2703 6.0627 11.9846C6.34845 11.6988 6.81175 11.6988 7.0975 11.9846L7.97039 12.8575L11.1604 9.66744C11.4462 9.38169 11.9095 9.38169 12.1952 9.66744Z" fill="#4876EF"/>
<path fill-rule="evenodd" clip-rule="evenodd" d="M7.15236 0.000157663C7.17567 0.00022948 7.19814 0.000298738 7.2197 0.000298738H10.9271C10.9487 0.000298738 10.9712 0.00022948 10.9945 0.000157663C11.4037 -0.00110311 12.0703 -0.00315694 12.6074 0.354904C13.2568 0.787796 13.5126 1.56223 13.5126 2.58572C13.5126 2.60729 13.5126 2.62976 13.5127 2.65307C13.514 3.06232 13.516 3.72894 13.158 4.26603C12.7251 4.91537 11.9506 5.17115 10.9271 5.17115H7.2197C7.19814 5.17115 7.17567 5.17122 7.15236 5.17129C6.74311 5.17255 6.07649 5.17461 5.53939 4.81655C4.89006 4.38365 4.63428 3.60922 4.63428 2.58572C4.63428 1.56223 4.89006 0.787796 5.53939 0.354904C6.07649 -0.00315694 6.74311 -0.00110311 7.15236 0.000157663ZM6.35116 1.57255C6.30535 1.60308 6.0977 1.7555 6.0977 2.58572C6.0977 3.41595 6.30535 3.56837 6.35116 3.5989C6.47862 3.68388 6.69309 3.70773 7.2197 3.70773H10.9271C11.7574 3.70773 11.9098 3.50008 11.9403 3.45427C12.0253 3.32681 12.0491 3.11234 12.0491 2.58572C12.0491 1.7555 11.8415 1.60308 11.7957 1.57255C11.6682 1.48757 11.4537 1.46372 10.9271 1.46372H7.2197C6.69309 1.46372 6.47862 1.48757 6.35116 1.57255Z" fill="#4876EF"/>
<path fill-rule="evenodd" clip-rule="evenodd" d="M6.09664 2.56528C6.11845 2.96881 5.80902 3.31361 5.40549 3.33542C3.9197 3.41574 3.00404 3.72767 2.4289 4.35023C1.8456 4.98163 1.46342 6.09344 1.46342 8.14737V13.7085C1.46342 15.5493 1.70618 16.6902 2.32509 17.3975C2.92286 18.0807 4.0388 18.5379 6.29285 18.5379H11.854C14.108 18.5379 15.224 18.0807 15.8218 17.3975C16.4407 16.6902 16.6834 15.5493 16.6834 13.7085V8.14737C16.6834 6.08831 16.3011 4.97707 15.7183 4.34713C15.1436 3.72587 14.2284 3.4158 12.7414 3.33542C12.3378 3.31361 12.0284 2.96881 12.0502 2.56528C12.072 2.16176 12.4168 1.85232 12.8203 1.87413C14.4198 1.96059 15.8217 2.30395 16.7925 3.35334C17.7553 4.39405 18.1469 5.97068 18.1469 8.14737V13.7085C18.1469 15.5752 17.9262 17.2148 16.9231 18.3612C15.8989 19.5318 14.2342 20.0014 11.854 20.0014H6.29285C3.91262 20.0014 2.24799 19.5318 1.22376 18.3612C0.22067 17.2148 0 15.5752 0 13.7085V8.14737C0 5.97482 0.391746 4.39876 1.35398 3.35719C2.32437 2.30678 3.72586 1.96065 5.3265 1.87413C5.73003 1.85232 6.07483 2.16176 6.09664 2.56528Z" fill="#4876EF"/>
</svg>
