<svg width="24" height="24" viewBox="0 0 24 24" fill="none" xmlns="http://www.w3.org/2000/svg">
<path d="M17 7V15C17 17.7583 14.7583 20 12 20C9.24166 20 6.99999 17.7583 6.99999 15V7C6.99999 5.34167 8.34167 3.99999 10 3.99999C11.6583 3.99999 13 5.34167 13 7V15C13 15.55 12.55 16 12 16C11.45 16 11 15.55 11 15V7H8.99999V15C8.99999 16.6583 10.3417 18 12 18C13.6583 18 15 16.6583 15 15V7C15 4.24167 12.7583 2 10 2C7.24167 2 5 4.24167 5 7V15C5 18.8583 8.14166 22 12 22C15.8583 22 19 18.8583 19 15V7H17Z" fill="#050505"/>
</svg>
