<svg width="14" height="14" viewBox="0 0 14 14" fill="none" xmlns="http://www.w3.org/2000/svg">
<path d="M6.51855 9.11368H7.48143V10.1255H6.51855V9.11368ZM6.68175 8.33848L6.55119 4.83787L6.52671 3.875H7.47327L7.31007 8.33848H6.68175Z" fill="#F05050"/>
<path d="M6.99992 13.6673C3.32387 13.6673 0.333252 10.6767 0.333252 7.00065C0.333252 3.3246 3.32387 0.333984 6.99992 0.333984C10.676 0.333984 13.6666 3.3246 13.6666 7.00065C13.6666 10.6767 10.676 13.6673 6.99992 13.6673ZM6.99992 0.945979C3.66251 0.945979 0.945247 3.66324 0.945247 7.00065C0.945247 10.3381 3.66251 13.0553 6.99992 13.0553C10.3373 13.0553 13.0546 10.3381 13.0546 7.00065C13.0546 3.66324 10.3373 0.945979 6.99992 0.945979Z" fill="#F05050"/>
</svg>
