<svg width="24" height="24" viewBox="0 0 24 24" fill="none" xmlns="http://www.w3.org/2000/svg">
<path fill-rule="evenodd" clip-rule="evenodd" d="M2.70152 2C3.08896 2 3.40305 2.31408 3.40305 2.70152V18.6027C3.40305 19.768 4.34235 20.7073 5.50762 20.7073H21.4088C21.7963 20.7073 22.1104 21.0214 22.1104 21.4088C22.1104 21.7963 21.7963 22.1104 21.4088 22.1104H5.50762C3.56747 22.1104 2 20.5429 2 18.6027V2.70152C2 2.31408 2.31408 2 2.70152 2Z" fill="#373F57"/>
<path fill-rule="evenodd" clip-rule="evenodd" d="M20.9299 6.84552C21.2242 7.09757 21.2584 7.54043 21.0063 7.83468L16.7197 12.8388C16.6929 12.8747 16.6329 12.9518 16.5479 13.0252C15.5424 14.0036 13.9293 13.9952 12.9342 13.0001L12.0699 12.1359C12.0574 12.1251 12.0464 12.1152 12.0371 12.1065C12.0192 12.0898 12.0031 12.0738 11.9957 12.0663L11.9943 12.0649C11.9939 12.0645 11.9935 12.0642 11.9932 12.0639C11.9895 12.0608 11.9858 12.0577 11.9822 12.0546C11.4873 11.6304 10.7523 11.6868 10.3339 12.1747M10.3339 12.1747L6.04054 17.1882C5.78853 17.4825 5.34567 17.5168 5.05139 17.2648C4.75711 17.0128 4.72283 16.5699 4.97484 16.2756L9.26817 11.2621C10.1929 10.1832 11.8057 10.0675 12.8822 10.9782C12.907 10.9979 12.9275 11.0163 12.9432 11.0309C12.9612 11.0476 12.9772 11.0637 12.9847 11.0711L12.9861 11.0725C12.9864 11.0729 12.9868 11.0732 12.9871 11.0736C13.0047 11.088 13.0216 11.1033 13.0377 11.1194L13.9263 12.008C14.3819 12.4636 15.1256 12.4636 15.5813 12.008C15.5898 11.9995 15.5985 11.9912 15.6075 11.9831L15.6096 11.9803C15.6187 11.9682 15.6282 11.9563 15.6381 11.9448L19.9408 6.92191C20.1928 6.62767 20.6357 6.59347 20.9299 6.84552" fill="#373F57"/>
</svg>
