<svg width="24" height="24" viewBox="0 0 24 24" fill="none" xmlns="http://www.w3.org/2000/svg">
<path d="M15.768 3.50065C16.453 2.82865 17.552 2.83365 18.231 3.51265L20.578 5.86065C21.255 6.55065 21.245 7.65865 20.555 8.33465L8.317 20.3426C7.99 20.6636 7.55 20.8436 7.091 20.8436H3.95C3.425 20.8436 3 20.4186 3 19.8936V16.7636C3 16.2936 3.189 15.8436 3.524 15.5136L15.768 3.50065ZM13.966 7.36965L4.575 16.5826C4.527 16.6296 4.5 16.6946 4.5 16.7616V19.3426H7.091C7.135 19.3426 7.177 19.3316 7.215 19.3096L7.266 19.2706L16.656 10.0596L13.966 7.36965ZM17.17 4.57265C17.073 4.47565 16.916 4.47465 16.818 4.57064L15.037 6.31865L17.726 9.00765L19.504 7.26365C19.586 7.18365 19.601 7.05965 19.551 6.96665L19.512 6.91465L17.17 4.57265Z" fill="#444444"/>
</svg>
