<svg width="32" height="28" viewBox="0 0 32 28" fill="none" xmlns="http://www.w3.org/2000/svg">
<rect width="32" height="28" fill="white"/>
<path d="M16.5142 13.0208C16.6425 13.0208 16.7658 13.0701 16.8645 13.1639L23.8557 20.1551C24.0481 20.3475 24.0481 20.6633 23.8557 20.8557C23.6633 21.0481 23.3475 21.0481 23.1551 20.8557L16.1639 13.8595C15.9715 13.6671 15.9715 13.3563 16.1639 13.1639C16.2625 13.0652 16.3859 13.0208 16.5142 13.0208Z" fill="#1F2125"/>
<path d="M23.5054 5.99931C23.6337 5.99931 23.757 6.04865 23.8557 6.14239C24.0481 6.33481 24.0481 6.64564 23.8557 6.83806L16.8595 13.8342C16.6671 14.0266 16.3563 14.0266 16.1639 13.8342C15.9715 13.6418 15.9715 13.331 16.1639 13.1385L23.1551 6.14732C23.2538 6.04865 23.3771 6.00424 23.5054 6.00424L23.5054 5.99931Z" fill="#1F2125"/>
<path d="M8.51417 13.0208C8.64245 13.0208 8.7658 13.0701 8.86447 13.1639L15.8557 20.1551C16.0481 20.3475 16.0481 20.6633 15.8557 20.8557C15.6633 21.0481 15.3475 21.0481 15.1551 20.8557L8.16387 13.8595C7.97145 13.6671 7.97145 13.3563 8.16387 13.1639C8.26255 13.0652 8.38589 13.0208 8.51417 13.0208Z" fill="#1F2125"/>
<path d="M15.5054 5.99931C15.6337 5.99931 15.757 6.04865 15.8557 6.14239C16.0481 6.33481 16.0481 6.64564 15.8557 6.83806L8.85954 13.8342C8.66712 14.0266 8.35629 14.0266 8.16387 13.8342C7.97145 13.6418 7.97145 13.331 8.16387 13.1385L15.1551 6.14732C15.2538 6.04865 15.3771 6.00424 15.5054 6.00424L15.5054 5.99931Z" fill="#1F2125"/>
</svg>
