<svg width="32" height="28" viewBox="0 0 32 28" fill="none" xmlns="http://www.w3.org/2000/svg">
<rect width="32" height="28" fill="white"/>
<path d="M15.4858 13.9792C15.3575 13.9792 15.2342 13.9299 15.1355 13.8361L8.14431 6.84492C7.9519 6.6525 7.9519 6.33673 8.14431 6.14431C8.33673 5.9519 8.6525 5.9519 8.84492 6.14431L15.8361 13.1405C16.0285 13.3329 16.0285 13.6437 15.8361 13.8361C15.7375 13.9348 15.6141 13.9792 15.4858 13.9792Z" fill="#1F2125"/>
<path d="M8.49461 20.9997C8.36634 20.9997 8.24299 20.9504 8.14431 20.8566C7.9519 20.6642 7.9519 20.3534 8.14431 20.161L15.1405 13.1648C15.3329 12.9724 15.6437 12.9724 15.8361 13.1648C16.0285 13.3572 16.0285 13.6681 15.8361 13.8605L8.84492 20.8517C8.74624 20.9504 8.62289 20.9948 8.49461 20.9948V20.9997Z" fill="#1F2125"/>
<path d="M23.4858 13.9792C23.3575 13.9792 23.2342 13.9299 23.1355 13.8361L16.1443 6.84492C15.9519 6.6525 15.9519 6.33673 16.1443 6.14431C16.3367 5.9519 16.6525 5.9519 16.8449 6.14431L23.8361 13.1405C24.0285 13.3329 24.0285 13.6437 23.8361 13.8361C23.7375 13.9348 23.6141 13.9792 23.4858 13.9792Z" fill="#1F2125"/>
<path d="M16.4946 20.9997C16.3663 20.9997 16.243 20.9504 16.1443 20.8566C15.9519 20.6642 15.9519 20.3534 16.1443 20.161L23.1405 13.1648C23.3329 12.9724 23.6437 12.9724 23.8361 13.1648C24.0285 13.3572 24.0285 13.6681 23.8361 13.8605L16.8449 20.8517C16.7462 20.9504 16.6229 20.9948 16.4946 20.9948V20.9997Z" fill="#1F2125"/>
</svg>
