<svg width="32" height="28" viewBox="0 0 32 28" fill="none" xmlns="http://www.w3.org/2000/svg">
<rect width="32" height="28" fill="white"/>
<path d="M19.4858 13.9792C19.3575 13.9792 19.2342 13.9299 19.1355 13.8361L12.1443 6.84492C11.9519 6.6525 11.9519 6.33673 12.1443 6.14431C12.3367 5.9519 12.6525 5.9519 12.8449 6.14431L19.8361 13.1405C20.0285 13.3329 20.0285 13.6437 19.8361 13.8361C19.7375 13.9348 19.6141 13.9792 19.4858 13.9792Z" fill="#C4C8CA"/>
<path d="M12.4946 20.9997C12.3663 20.9997 12.243 20.9504 12.1443 20.8566C11.9519 20.6642 11.9519 20.3534 12.1443 20.161L19.1405 13.1648C19.3329 12.9724 19.6437 12.9724 19.8361 13.1648C20.0285 13.3572 20.0285 13.6681 19.8361 13.8605L12.8449 20.8517C12.7462 20.9504 12.6229 20.9948 12.4946 20.9948V20.9997Z" fill="#C4C8CA"/>
</svg>
