<svg width="24" height="24" viewBox="0 0 24 24" fill="none" xmlns="http://www.w3.org/2000/svg">
<path d="M9.943 2.01322C10.4242 1.9565 10.9092 2.08363 11.3007 2.36916C11.6922 2.65468 11.9614 3.07754 12.0545 3.5531L12.0798 3.72206L12.0849 3.82728V10.9095C12.0849 11.1573 12.1759 11.3965 12.3406 11.5817C12.5052 11.7669 12.7321 11.8852 12.9782 11.9142L13.0966 11.9213H19.9765C20.5132 11.9213 21.0279 12.1345 21.4073 12.5139C21.7868 12.8934 22 13.4081 22 13.9448C22 14.0217 21.9911 14.0984 21.9737 14.1734C21.5688 15.9204 20.7069 17.5283 19.4762 18.8326C18.2455 20.1369 16.6902 21.0906 14.9697 21.5961C13.2492 22.1017 11.4252 22.1408 9.68458 21.7096C7.94394 21.2784 6.34919 20.3923 5.06364 19.1421C3.77809 17.8918 2.84793 16.3224 2.36841 14.5944C1.8889 12.8665 1.87727 11.0421 2.33471 9.30817C2.79215 7.57424 3.70222 5.99304 4.97172 4.72651C6.24123 3.45997 7.82455 2.5536 9.55955 2.10023L9.83272 2.03244L9.94401 2.01221L9.943 2.01322Z" fill="#444444"/>
<path d="M14.1084 3.32139V8.88601C14.1084 9.15434 14.215 9.41168 14.4047 9.60142C14.5945 9.79116 14.8518 9.89776 15.1201 9.89776H20.6848C20.8465 9.89771 21.0058 9.8589 21.1495 9.78458C21.2931 9.71026 21.4168 9.6026 21.5102 9.47061C21.6037 9.33862 21.6641 9.18616 21.6865 9.026C21.7089 8.86584 21.6925 8.70265 21.6388 8.55011C21.1363 7.12287 20.3201 5.82651 19.2503 4.75649C18.1804 3.68647 16.8842 2.87004 15.4571 2.36731C15.3045 2.31342 15.1412 2.29692 14.9809 2.3192C14.8206 2.34148 14.668 2.40189 14.5358 2.49535C14.4037 2.58882 14.2959 2.71261 14.2216 2.85635C14.1472 3.00008 14.1084 3.15956 14.1084 3.32139Z" fill="#444444"/>
</svg>
