<svg width="13" height="14" viewBox="0 0 13 14" fill="none" xmlns="http://www.w3.org/2000/svg">
<path fill-rule="evenodd" clip-rule="evenodd" d="M4.13845 2.08822C3.72089 2.6066 3.57342 3.36115 3.57342 4.30975V5.48805C3.57342 5.73208 3.37559 5.92991 3.13156 5.92991C2.88752 5.92991 2.6897 5.73208 2.6897 5.48805V4.30975C2.6897 3.30828 2.8368 2.29539 3.45024 1.53385C4.08031 0.751664 5.11795 0.333008 6.66644 0.333008C8.21493 0.333008 9.25257 0.751664 9.88264 1.53385C10.4961 2.29539 10.6432 3.30828 10.6432 4.30975V5.48805C10.6432 5.73208 10.4454 5.92991 10.2013 5.92991C9.95729 5.92991 9.75946 5.73208 9.75946 5.48805V4.30975C9.75946 3.36115 9.612 2.6066 9.19443 2.08822C8.79349 1.59048 8.06368 1.21673 6.66644 1.21673C5.2692 1.21673 4.5394 1.59048 4.13845 2.08822Z" fill="#C4C8CA"/>
<path fill-rule="evenodd" clip-rule="evenodd" d="M6.66668 8.54974C6.09727 8.54974 5.63567 9.01133 5.63567 9.58074C5.63567 10.1502 6.09727 10.6118 6.66668 10.6118C7.23609 10.6118 7.69769 10.1502 7.69769 9.58074C7.69769 9.01133 7.23609 8.54974 6.66668 8.54974ZM4.75195 9.58074C4.75195 8.52327 5.60921 7.66602 6.66668 7.66602C7.72416 7.66602 8.58141 8.52327 8.58141 9.58074C8.58141 10.6382 7.72416 11.4955 6.66668 11.4955C5.60921 11.4955 4.75195 10.6382 4.75195 9.58074Z" fill="#C4C8CA"/>
<path fill-rule="evenodd" clip-rule="evenodd" d="M3.72085 5.96296C2.338 5.96296 1.21697 7.18451 1.21697 8.69136V9.97531C1.21697 11.4822 2.338 12.7037 3.72085 12.7037H9.61232C10.9952 12.7037 12.1162 11.4822 12.1162 9.97531V8.69136C12.1162 7.18451 10.9952 5.96296 9.61232 5.96296H3.72085ZM0.333252 8.69136C0.333252 6.65268 1.84993 5 3.72085 5H9.61232C11.4832 5 12.9999 6.65268 12.9999 8.69136V9.97531C12.9999 12.014 11.4832 13.6667 9.61232 13.6667H3.72085C1.84993 13.6667 0.333252 12.014 0.333252 9.97531V8.69136Z" fill="#C4C8CA"/>
</svg>
