<svg width="24" height="24" viewBox="0 0 24 24" fill="none" xmlns="http://www.w3.org/2000/svg">
<path d="M14.6469 4.0812C14.6738 4.19193 14.7263 4.29476 14.8004 4.38134C14.8745 4.46791 14.9679 4.53579 15.0732 4.57944C15.1784 4.6231 15.2924 4.6413 15.406 4.63257C15.5196 4.62383 15.6296 4.58841 15.7269 4.52919C18.1658 3.04422 20.9568 5.83415 19.4718 8.27309C19.4126 8.37035 19.3771 8.48022 19.3683 8.59375C19.3595 8.70729 19.3777 8.8213 19.4212 8.92653C19.4648 9.03175 19.5325 9.12521 19.619 9.19933C19.7054 9.27344 19.8082 9.32611 19.9188 9.35307C22.6937 10.026 22.6937 13.9729 19.9188 14.6469C19.8081 14.6738 19.7052 14.7263 19.6187 14.8004C19.5321 14.8745 19.4642 14.9679 19.4206 15.0732C19.3769 15.1784 19.3587 15.2924 19.3674 15.406C19.3762 15.5196 19.4116 15.6296 19.4708 15.7269C20.9558 18.1658 18.1658 20.9568 15.7269 19.4718C15.6296 19.4126 15.5198 19.3771 15.4062 19.3683C15.2927 19.3595 15.1787 19.3777 15.0735 19.4212C14.9683 19.4648 14.8748 19.5325 14.8007 19.619C14.7266 19.7054 14.6739 19.8082 14.6469 19.9188C13.9739 22.6937 10.027 22.6937 9.35307 19.9188C9.32624 19.8081 9.27365 19.7052 9.19959 19.6187C9.12553 19.5321 9.03208 19.4642 8.92684 19.4206C8.8216 19.3769 8.70755 19.3587 8.59395 19.3674C8.48035 19.3762 8.37042 19.4116 8.27309 19.4708C5.83415 20.9558 3.04322 18.1658 4.52819 15.7269C4.58742 15.6296 4.62287 15.5198 4.63166 15.4062C4.64045 15.2927 4.62234 15.1787 4.57879 15.0735C4.53524 14.9683 4.46748 14.8748 4.38102 14.8007C4.29456 14.7266 4.19184 14.6739 4.0812 14.6469C1.30627 13.9739 1.30627 10.027 4.0812 9.35307C4.19193 9.32624 4.29476 9.27365 4.38134 9.19959C4.46791 9.12553 4.53579 9.03208 4.57944 8.92684C4.6231 8.8216 4.6413 8.70755 4.63257 8.59395C4.62383 8.48035 4.58841 8.37042 4.52919 8.27309C3.04422 5.83415 5.83415 3.04322 8.27309 4.52819C8.37026 4.58786 8.48017 4.62368 8.59384 4.6327C8.70751 4.64172 8.8217 4.62369 8.92706 4.58008C9.03242 4.53647 9.12595 4.46853 9.2 4.38182C9.27404 4.29511 9.3265 4.19209 9.35307 4.0812C10.026 1.30627 13.9729 1.30627 14.6469 4.0812ZM12 9.00007C11.2044 9.00007 10.4413 9.31614 9.87873 9.87873C9.31614 10.4413 9.00007 11.2044 9.00007 12C9.00007 12.7956 9.31614 13.5587 9.87873 14.1213C10.4413 14.6839 11.2044 14.9999 12 14.9999C12.7956 14.9999 13.5587 14.6839 14.1213 14.1213C14.6839 13.5587 14.9999 12.7956 14.9999 12C14.9999 11.2044 14.6839 10.4413 14.1213 9.87873C13.5587 9.31614 12.7956 9.00007 12 9.00007Z" fill="#444444"/>
</svg>
