<svg width="24" height="24" viewBox="0 0 24 24" fill="none" xmlns="http://www.w3.org/2000/svg">
<path fill-rule="evenodd" clip-rule="evenodd" d="M3.69613 3.92757C4.92314 2.70056 6.75923 2.23145 9.12594 2.23145H10.9649C11.3457 2.23145 11.6545 2.54019 11.6545 2.92105C11.6545 3.30191 11.3457 3.61066 10.9649 3.61066H9.12594C6.89526 3.61066 5.51319 4.06102 4.67138 4.90283C3.82957 5.74464 3.37921 7.12671 3.37921 9.35738V14.8742C3.37921 17.1049 3.82957 18.487 4.67138 19.3288C5.51319 20.1706 6.89526 20.621 9.12594 20.621H14.6428C16.8735 20.621 18.2555 20.1706 19.0974 19.3288C19.9392 18.487 20.3895 17.1049 20.3895 14.8742V13.0353C20.3895 12.6544 20.6983 12.3457 21.0791 12.3457C21.46 12.3457 21.7687 12.6544 21.7687 13.0353V14.8742C21.7687 17.2409 21.2996 19.077 20.0726 20.304C18.8456 21.5311 17.0095 22.0002 14.6428 22.0002H9.12594C6.75923 22.0002 4.92314 21.5311 3.69613 20.304C2.46912 19.077 2 17.2409 2 14.8742V9.35738C2 6.99068 2.46912 5.15459 3.69613 3.92757Z" fill="#444444"/>
<path fill-rule="evenodd" clip-rule="evenodd" d="M17.5822 2.01376C18.6059 1.91328 19.6209 2.36284 20.629 3.37098C21.6371 4.37912 22.0867 5.39404 21.9862 6.41773C21.8893 7.40525 21.2937 8.22368 20.629 8.88839L13.3835 16.1339C13.3743 16.1431 13.3647 16.1522 13.3549 16.1609C12.923 16.5461 12.3889 16.8127 11.8201 16.9288C11.8067 16.9315 11.7932 16.9339 11.7797 16.9358L9.04304 17.3267C8.76351 17.39 8.46485 17.3877 8.1867 17.3198C7.11779 17.0787 6.45284 16.0283 6.67212 14.9647L7.06419 12.2202C7.06548 12.2112 7.06695 12.2022 7.0686 12.1932C7.17504 11.6137 7.44618 11.0725 7.84592 10.6375C7.85249 10.6303 7.8592 10.6233 7.86607 10.6165L15.1115 3.37098C15.7763 2.70627 16.5947 2.1107 17.5822 2.01376ZM17.717 3.38638C17.2057 3.43656 16.6726 3.76046 16.0868 4.34624L8.85247 11.5806C8.63478 11.8211 8.48727 12.1172 8.42744 12.43L8.03417 15.1829C8.03172 15.2001 8.02862 15.2171 8.02489 15.234C7.94985 15.5739 8.16082 15.9017 8.49316 15.975L8.51174 15.9794C8.58583 15.9979 8.67322 15.9979 8.74731 15.9794C8.7703 15.9737 8.79358 15.9691 8.81705 15.9658L11.5628 15.5736C11.8821 15.5051 12.1818 15.3548 12.4233 15.1436L19.6538 7.91314C20.2395 7.32736 20.5634 6.7942 20.6136 6.28299C20.6602 5.80797 20.4846 5.17705 19.6538 4.34624C18.8229 3.51543 18.192 3.33975 17.717 3.38638Z" fill="#444444"/>
<path fill-rule="evenodd" clip-rule="evenodd" d="M14.374 4.23378C14.7407 4.13098 15.1213 4.34492 15.2242 4.71165C15.7752 6.67741 17.3227 8.22486 19.2885 8.77594C19.6552 8.87874 19.8692 9.25937 19.7664 9.62609C19.6636 9.99281 19.2829 10.2068 18.9162 10.104C16.4869 9.42294 14.5772 7.51326 13.8961 5.08394C13.7933 4.71721 14.0073 4.33659 14.374 4.23378Z" fill="#444444"/>
</svg>
