<svg width="24" height="24" viewBox="0 0 24 24" fill="none" xmlns="http://www.w3.org/2000/svg">
<circle cx="12" cy="12" r="12" fill="white"/>
<path d="M11.75 6.5C11.336 6.5 11 6.164 11 5.75C11 5.37 11.282 5.057 11.648 5.007L11.75 5H18.25C18.664 5 19 5.336 19 5.75C19 6.13 18.718 6.443 18.352 6.493L18.25 6.5H11.75ZM7.554 16.103L7.47 16.03L3.47 12.03C3.203 11.764 3.18 11.347 3.397 11.054L3.47 10.97L7.47 6.97C7.763 6.677 8.237 6.677 8.53 6.97C8.797 7.236 8.82 7.653 8.603 7.946L8.53 8.03L5.811 10.75H18.25C18.664 10.75 19 11.086 19 11.5C19 11.88 18.718 12.193 18.352 12.243L18.25 12.25H5.811L8.531 14.97C8.797 15.236 8.821 15.653 8.603 15.946L8.53 16.03C8.264 16.297 7.847 16.32 7.554 16.103ZM11.75 18C11.336 18 11 17.664 11 17.25C11 16.87 11.282 16.557 11.648 16.507L11.75 16.5H18.25C18.664 16.5 19 16.836 19 17.25C19 17.63 18.718 17.943 18.352 17.993L18.25 18H11.75Z" fill="#AFBAC8"/>
</svg>
