<svg width="18" height="11" viewBox="0 0 18 11" fill="none" xmlns="http://www.w3.org/2000/svg">
<g id="Group 1253">
<path id="Line 10 (Stroke)" fill-rule="evenodd" clip-rule="evenodd" d="M18 0.768855C18 1.19369 17.69 1.53809 17.3077 1.53809L0.692308 1.53808C0.309958 1.53808 3.01081e-08 1.19369 6.72483e-08 0.768854C1.04388e-07 0.344019 0.309958 -0.000377294 0.692309 -0.000377261L17.3077 -0.000375808C17.69 -0.000375775 18 0.344021 18 0.768855Z" fill="black"/>
<path id="Line 10 (Stroke)_2" fill-rule="evenodd" clip-rule="evenodd" d="M18 9.84503C18 10.2699 17.69 10.6143 17.3077 10.6143L0.692308 10.6143C0.309958 10.6143 3.01081e-08 10.2699 6.72483e-08 9.84503C1.04388e-07 9.42019 0.309958 9.07579 0.692309 9.07579L17.3077 9.0758C17.69 9.0758 18 9.42019 18 9.84503Z" fill="black"/>
<path id="Line 10 (Stroke)_3" fill-rule="evenodd" clip-rule="evenodd" d="M18 5.30694C18 5.73178 17.69 6.07617 17.3077 6.07617L0.692308 6.07617C0.309958 6.07617 3.01081e-08 5.73177 6.72483e-08 5.30694C1.04388e-07 4.88211 0.309958 4.53771 0.692309 4.53771L17.3077 4.53771C17.69 4.53771 18 4.88211 18 5.30694Z" fill="black"/>
</g>
</svg>
