<svg width="24" height="24" viewBox="0 0 24 24" fill="none" xmlns="http://www.w3.org/2000/svg">
<rect width="24" height="24" fill="#F5F5F5"/>
<rect width="4860" height="1615" transform="translate(-1049 -222)" fill="white"/>
<path d="M12 24C18.6274 24 24 18.6274 24 12C24 5.37258 18.6274 0 12 0C5.37258 0 0 5.37258 0 12C0 18.6274 5.37258 24 12 24Z" fill="#CCD0D6"/>
<path d="M18.75 18C18.75 16.3425 17.2387 15 15.375 15H8.625C6.76125 15 5.25 16.3425 5.25 18" fill="#CCD0D6"/>
<path fill-rule="evenodd" clip-rule="evenodd" d="M4.5 18C4.5 15.8476 6.43266 14.25 8.625 14.25H15.375C17.5673 14.25 19.5 15.8476 19.5 18C19.5 18.4142 19.1642 18.75 18.75 18.75C18.3358 18.75 18 18.4142 18 18C18 16.8374 16.9102 15.75 15.375 15.75H8.625C7.08984 15.75 6 16.8374 6 18C6 18.4142 5.66421 18.75 5.25 18.75C4.83579 18.75 4.5 18.4142 4.5 18Z" fill="white"/>
<path d="M12 6H14.625C14.832 6 15 6.168 15 6.375V9C15 10.6575 13.6575 12 12 12C10.3425 12 9 10.6575 9 9C9 7.3425 10.3425 6 12 6Z" fill="#CCD0D6"/>
<path fill-rule="evenodd" clip-rule="evenodd" d="M12 6.75C10.7567 6.75 9.75 7.75671 9.75 9C9.75 10.2433 10.7567 11.25 12 11.25C13.2433 11.25 14.25 10.2433 14.25 9V6.75H12ZM8.25 9C8.25 6.92829 9.92829 5.25 12 5.25H14.625C15.2462 5.25 15.75 5.75379 15.75 6.375V9C15.75 11.0717 14.0717 12.75 12 12.75C9.92829 12.75 8.25 11.0717 8.25 9Z" fill="white"/>
</svg>
