<svg width="24" height="24" viewBox="0 0 24 24" fill="none" xmlns="http://www.w3.org/2000/svg">
<path fill-rule="evenodd" clip-rule="evenodd" d="M16.3789 7.62154C16.6646 7.90728 16.6646 8.37058 16.3789 8.65633L8.65535 16.3799C8.36961 16.6657 7.90632 16.6657 7.62056 16.38C7.33481 16.0942 7.33481 15.6309 7.62056 15.3452L15.3441 7.62154C15.6298 7.33579 16.0931 7.33579 16.3789 7.62154Z" fill="#373F57"/>
<path fill-rule="evenodd" clip-rule="evenodd" d="M7.62056 7.62154C7.90632 7.33579 8.36961 7.33579 8.65535 7.62154L16.3789 15.3452C16.6646 15.6309 16.6646 16.0942 16.3789 16.38C16.0931 16.6657 15.6298 16.6657 15.3441 16.3799L7.62056 8.65633C7.33481 8.37058 7.33481 7.90728 7.62056 7.62154Z" fill="#373F57"/>
<path fill-rule="evenodd" clip-rule="evenodd" d="M2 12C2 6.47716 6.47716 2 12 2C17.5228 2 22 6.47716 22 12C22 17.5228 17.5228 22 12 22C6.47716 22 2 17.5228 2 12ZM12 3.46341C7.28538 3.46341 3.46341 7.28538 3.46341 12C3.46341 16.7146 7.28538 20.5366 12 20.5366C16.7146 20.5366 20.5366 16.7146 20.5366 12C20.5366 7.28538 16.7146 3.46341 12 3.46341Z" fill="#373F57"/>
</svg>
