<svg width="14" height="14" viewBox="0 0 14 14" fill="none" xmlns="http://www.w3.org/2000/svg">
<path fill-rule="evenodd" clip-rule="evenodd" d="M1.46401 1.61806C2.28201 0.80005 3.50607 0.487305 5.08388 0.487305H6.30985C6.56375 0.487305 6.76958 0.693136 6.76958 0.947043C6.76958 1.20095 6.56375 1.40678 6.30985 1.40678H5.08388C3.59676 1.40678 2.67538 1.70702 2.11417 2.26823C1.55297 2.82943 1.25273 3.75081 1.25273 5.23793V8.91583C1.25273 10.403 1.55297 11.3243 2.11417 11.8855C2.67538 12.4467 3.59676 12.747 5.08388 12.747H8.76178C10.2489 12.747 11.1703 12.4467 11.7315 11.8855C12.2927 11.3243 12.5929 10.403 12.5929 8.91583V7.68987C12.5929 7.43596 12.7988 7.23013 13.0527 7.23013C13.3066 7.23013 13.5124 7.43596 13.5124 7.68987V8.91583C13.5124 10.4936 13.1997 11.7177 12.3817 12.5357C11.5636 13.3537 10.3396 13.6665 8.76178 13.6665H5.08388C3.50607 13.6665 2.28201 13.3537 1.46401 12.5357C0.645997 11.7177 0.333252 10.4936 0.333252 8.91583V5.23793C0.333252 3.66013 0.645997 2.43607 1.46401 1.61806Z" fill="#C4C8CA"/>
<path fill-rule="evenodd" clip-rule="evenodd" d="M10.7214 0.342182C11.4039 0.275192 12.0805 0.574902 12.7526 1.247C13.4247 1.91909 13.7244 2.5957 13.6574 3.27816C13.5928 3.93651 13.1957 4.48213 12.7526 4.92527L7.92227 9.75559C7.91609 9.76177 7.90973 9.76778 7.9032 9.7736C7.61523 10.0304 7.25922 10.2082 6.87998 10.2855C6.87105 10.2874 6.86207 10.2889 6.85305 10.2902L5.02861 10.5508C4.84226 10.593 4.64315 10.5915 4.45772 10.5462C3.74511 10.3855 3.30181 9.68523 3.448 8.97616L3.70938 7.14649C3.71024 7.14046 3.71122 7.13444 3.71232 7.12845C3.78328 6.74212 3.96404 6.38133 4.23053 6.09133C4.23491 6.08656 4.23939 6.08189 4.24396 6.07731L9.07428 1.247C9.51743 0.803853 10.0631 0.406805 10.7214 0.342182ZM10.8112 1.25726C10.4704 1.29071 10.115 1.50665 9.72445 1.89716L4.90156 6.72005C4.75644 6.8804 4.6581 7.07784 4.61821 7.28633L4.35603 9.12161C4.3544 9.13305 4.35233 9.14442 4.34984 9.15571C4.29982 9.38228 4.44047 9.60079 4.66203 9.64971L4.67442 9.65262C4.7238 9.66497 4.78207 9.66497 4.83146 9.65262C4.84679 9.64879 4.86231 9.64575 4.87795 9.64352L6.70846 9.38206C6.92132 9.3364 7.12111 9.23618 7.28213 9.0954L12.1024 4.2751C12.4929 3.88458 12.7089 3.52914 12.7423 3.18834C12.7734 2.87165 12.6563 2.45104 12.1024 1.89716C11.5486 1.34329 11.1279 1.22617 10.8112 1.25726Z" fill="#C4C8CA"/>
<path fill-rule="evenodd" clip-rule="evenodd" d="M8.58258 1.82187C8.82707 1.75333 9.08082 1.89596 9.14935 2.14045C9.51674 3.45096 10.5484 4.48259 11.8589 4.84998C12.1034 4.91851 12.246 5.17226 12.1775 5.41674C12.109 5.66123 11.8552 5.80386 11.6107 5.73532C9.99119 5.28131 8.71803 4.00819 8.26401 2.38864C8.19547 2.14416 8.3381 1.89041 8.58258 1.82187Z" fill="#C4C8CA"/>
</svg>
