<svg width="24" height="24" viewBox="0 0 24 24" fill="none" xmlns="http://www.w3.org/2000/svg">
<path fill-rule="evenodd" clip-rule="evenodd" d="M22.5 2.96811H1.5V22.4979H22.5V2.96811ZM0 1.46582V24.0002H24V1.46582H0Z" fill="#1D1D1B"/>
<path d="M1.46582 7.51172H22.5345V8.97737H1.46582V7.51172Z" fill="#1D1D1B"/>
<path d="M4.58008 0H6.04573V4.58015H4.58008V0Z" fill="#1D1D1B"/>
<path d="M17.9541 0H19.4198V4.58015H17.9541V0Z" fill="#1D1D1B"/>
<path d="M4.58008 13.5576L4.58008 12.092L7.51138 12.092L7.51138 13.5576L4.58008 13.5576Z" fill="#1D1D1B"/>
<path d="M4.58008 19.4199L4.58008 17.9543L7.51138 17.9543L7.51138 19.4199L4.58008 19.4199Z" fill="#1D1D1B"/>
<path d="M4.58008 16.4883L4.58008 15.0226L7.51138 15.0226L7.51138 16.4883L4.58008 16.4883Z" fill="#1D1D1B"/>
<path d="M10.4429 13.5576L10.4429 12.092L13.5574 12.092L13.5574 13.5576L10.4429 13.5576Z" fill="#1D1D1B"/>
<path d="M10.4426 19.4199L10.4426 17.9543L13.5571 17.9543L13.5571 19.4199L10.4426 19.4199Z" fill="#1D1D1B"/>
<path d="M10.4429 16.4883L10.4429 15.0226L13.5574 15.0226L13.5574 16.4883L10.4429 16.4883Z" fill="#1D1D1B"/>
<path d="M16.4888 13.5576L16.4888 12.092L19.4201 12.092L19.4201 13.5576L16.4888 13.5576Z" fill="#1D1D1B"/>
<path d="M16.4885 19.4199L16.4885 17.9543L19.4198 17.9543L19.4198 19.4199L16.4885 19.4199Z" fill="#1D1D1B"/>
<path d="M16.4888 16.4883L16.4888 15.0226L19.4201 15.0226L19.4201 16.4883L16.4888 16.4883Z" fill="#1D1D1B"/>
</svg>
