<svg width="12" height="12" viewBox="0 0 12 12" fill="none" xmlns="http://www.w3.org/2000/svg">
<g id="Group 1251">
<path id="Line 10 (Stroke)" fill-rule="evenodd" clip-rule="evenodd" d="M6.13453 0.75C6.38235 0.75 6.58325 0.930808 6.58325 1.15385L6.58325 10.8462C6.58325 11.0692 6.38235 11.25 6.13453 11.25C5.88671 11.25 5.68582 11.0692 5.68582 10.8462L5.68582 1.15385C5.68582 0.930808 5.88671 0.75 6.13453 0.75Z" fill="#373F57"/>
<path id="Line 10 (Stroke)_2" fill-rule="evenodd" clip-rule="evenodd" d="M11.25 6.13453C11.25 6.38235 11.0692 6.58325 10.8462 6.58325L1.15385 6.58325C0.930808 6.58325 0.749999 6.38235 0.749999 6.13453C0.749999 5.88671 0.930808 5.68581 1.15385 5.68581L10.8462 5.68582C11.0692 5.68582 11.25 5.88671 11.25 6.13453Z" fill="#373F57"/>
</g>
</svg>
