<svg width="24" height="24" viewBox="0 0 24 24" fill="none" xmlns="http://www.w3.org/2000/svg">
<path fill-rule="evenodd" clip-rule="evenodd" d="M7.7078 4.63281C7.08145 5.41039 6.86025 6.54221 6.86025 7.96512V9.73256C6.86025 10.0986 6.56351 10.3953 6.19746 10.3953C5.83141 10.3953 5.53467 10.0986 5.53467 9.73256V7.96512C5.53467 6.46291 5.75533 4.94357 6.67549 3.80126C7.62058 2.62798 9.17704 2 11.4998 2C13.8225 2 15.379 2.62798 16.3241 3.80126C17.2442 4.94357 17.4649 6.46291 17.4649 7.96512V9.73256C17.4649 10.0986 17.1682 10.3953 16.8021 10.3953C16.4361 10.3953 16.1393 10.0986 16.1393 9.73256V7.96512C16.1393 6.54221 15.9181 5.41039 15.2918 4.63281C14.6904 3.8862 13.5956 3.32558 11.4998 3.32558C9.40392 3.32558 8.30922 3.8862 7.7078 4.63281Z" fill="#444444"/>
<path fill-rule="evenodd" clip-rule="evenodd" d="M11.5 14.3256C10.6459 14.3256 9.95351 15.018 9.95351 15.8721C9.95351 16.7262 10.6459 17.4186 11.5 17.4186C12.3541 17.4186 13.0465 16.7262 13.0465 15.8721C13.0465 15.018 12.3541 14.3256 11.5 14.3256ZM8.62793 15.8721C8.62793 14.2859 9.91381 13 11.5 13C13.0862 13 14.3721 14.2859 14.3721 15.8721C14.3721 17.4583 13.0862 18.7442 11.5 18.7442C9.91381 18.7442 8.62793 17.4583 8.62793 15.8721Z" fill="#444444"/>
<path fill-rule="evenodd" clip-rule="evenodd" d="M7.0814 10.4444C5.00712 10.4444 3.32558 12.2768 3.32558 14.537V16.463C3.32558 18.7232 5.00712 20.5556 7.0814 20.5556H15.9186C17.9929 20.5556 19.6744 18.7232 19.6744 16.463V14.537C19.6744 12.2768 17.9929 10.4444 15.9186 10.4444H7.0814ZM2 14.537C2 11.479 4.27502 9 7.0814 9H15.9186C18.725 9 21 11.479 21 14.537V16.463C21 19.521 18.725 22 15.9186 22H7.0814C4.27502 22 2 19.521 2 16.463V14.537Z" fill="#444444"/>
</svg>
