<svg width="24" height="24" viewBox="0 0 24 24" fill="none" xmlns="http://www.w3.org/2000/svg">
<path fill-rule="evenodd" clip-rule="evenodd" d="M7.24243 11.0293C7.24243 10.477 7.69015 10.0293 8.24243 10.0293H8.25244C8.80473 10.0293 9.25244 10.477 9.25244 11.0293C9.25244 11.5816 8.80473 12.0293 8.25244 12.0293H8.24243C7.69015 12.0293 7.24243 11.5816 7.24243 11.0293Z" fill="#373F57"/>
<path fill-rule="evenodd" clip-rule="evenodd" d="M19.6428 19.6699C19.9357 19.377 20.4105 19.377 20.7034 19.6699L21.6204 20.5869C21.9133 20.8798 21.9133 21.3546 21.6204 21.6475C21.3275 21.9404 20.8527 21.9404 20.5598 21.6475L19.6428 20.7305C19.3499 20.4376 19.3499 19.9628 19.6428 19.6699Z" fill="#373F57"/>
<path fill-rule="evenodd" clip-rule="evenodd" d="M4.65582 4.65582C3.92909 5.38255 3.5 6.53358 3.5 8.25195V12.8369C3.5 15.0647 3.95216 16.159 4.61937 16.7428C5.31134 17.3483 6.43123 17.5889 8.25195 17.5889H8.71045C8.72656 17.5889 8.74266 17.5894 8.75874 17.5904C9.23713 17.6213 9.69802 17.839 10.0201 18.2255C10.0283 18.2354 10.0363 18.2454 10.044 18.2557L11.4195 20.0897C11.4337 20.1087 11.447 20.1283 11.4594 20.1486C11.4981 20.2119 11.5504 20.2642 11.6141 20.3031L11.6257 20.3102L11.6257 20.3103C11.8779 20.4709 12.2225 20.3963 12.3875 20.137C12.6099 19.7876 13.0735 19.6845 13.4229 19.9069C13.7724 20.1293 13.8754 20.5929 13.653 20.9423C13.0489 21.8916 11.7835 22.1845 10.826 21.5794C10.5735 21.4239 10.3603 21.2144 10.2006 20.9646L8.85936 19.1762C8.81755 19.131 8.7561 19.0977 8.67954 19.0889H8.25195C6.40471 19.0889 4.77362 18.8709 3.63161 17.8717C2.46483 16.8508 2 15.1941 2 12.8369V8.25195C2 6.30236 2.48791 4.70241 3.59516 3.59516C4.70241 2.48791 6.30236 2 8.25195 2H15.5879C17.5375 2 19.1374 2.48791 20.2447 3.59516C21.3519 4.70241 21.8398 6.30236 21.8398 8.25195V12.8369C21.8398 13.2511 21.5041 13.5869 21.0898 13.5869C20.6756 13.5869 20.3398 13.2511 20.3398 12.8369V8.25195C20.3398 6.53358 19.9108 5.38255 19.184 4.65582C18.4573 3.92909 17.3063 3.5 15.5879 3.5H8.25195C6.53358 3.5 5.38255 3.92909 4.65582 4.65582Z" fill="#373F57"/>
<path fill-rule="evenodd" clip-rule="evenodd" d="M17.6052 15.4473C16.3989 15.4473 15.4209 16.4253 15.4209 17.6317C15.4209 18.8381 16.3988 19.816 17.6052 19.816C18.8117 19.816 19.7897 18.8381 19.7897 17.6317C19.7897 16.4253 18.8116 15.4473 17.6052 15.4473ZM13.9209 17.6317C13.9209 15.5969 15.5704 13.9473 17.6052 13.9473C19.6401 13.9473 21.2897 15.5969 21.2897 17.6317C21.2897 19.6666 19.64 21.316 17.6052 21.316C15.5704 21.316 13.9209 19.6665 13.9209 17.6317Z" fill="#373F57"/>
<path fill-rule="evenodd" clip-rule="evenodd" d="M14.5879 11.0293C14.5879 10.477 15.0356 10.0293 15.5879 10.0293H15.5979C16.1502 10.0293 16.5979 10.477 16.5979 11.0293C16.5979 11.5816 16.1502 12.0293 15.5979 12.0293H15.5879C15.0356 12.0293 14.5879 11.5816 14.5879 11.0293Z" fill="#373F57"/>
<path fill-rule="evenodd" clip-rule="evenodd" d="M10.9106 11.0293C10.9106 10.477 11.3584 10.0293 11.9106 10.0293H11.9207C12.4729 10.0293 12.9207 10.477 12.9207 11.0293C12.9207 11.5816 12.4729 12.0293 11.9207 12.0293H11.9106C11.3584 12.0293 10.9106 11.5816 10.9106 11.0293Z" fill="#373F57"/>
</svg>
