<svg width="52" height="23" viewBox="0 0 52 23" fill="none" xmlns="http://www.w3.org/2000/svg">
<rect width="52" height="23" rx="11.5" fill="#4876EF"/>
<path d="M20.404 15.556H10.624V14.752H15.004V12.724H11.848V9.4H18.232V7.72H11.824V6.916H19.192V10.192H12.82V11.932H19.444V12.724H16V14.752H20.404V15.556ZM21.7311 8.068V7.264H28.6551V7.276H29.1111V8.344C29.1111 9.712 29.0991 11.26 28.6911 13.588L27.7071 13.48C28.1391 11.284 28.1391 9.676 28.1391 8.344V8.068H21.7311ZM30.4191 15.316H20.6871V14.5H30.4191V15.316ZM38.5621 13.996V6.136H39.5461V13.996H38.5621ZM36.5821 9.52C36.5821 11.08 35.3581 12.184 33.7621 12.184C32.1661 12.184 30.9661 11.08 30.9661 9.52C30.9661 7.972 32.1661 6.88 33.7621 6.88C35.3581 6.88 36.5821 7.972 36.5821 9.52ZM31.9261 9.52C31.9261 10.588 32.7061 11.332 33.7621 11.332C34.8301 11.332 35.6221 10.588 35.6221 9.52C35.6221 8.476 34.8301 7.732 33.7621 7.732C32.7061 7.732 31.9261 8.476 31.9261 9.52ZM39.8701 16.648H32.6221V13.192H33.6061V15.844H39.8701V16.648Z" fill="white"/>
</svg>
