<svg width="62" height="23" viewBox="0 0 62 23" fill="none" xmlns="http://www.w3.org/2000/svg">
<rect width="62" height="23" rx="11.5" fill="#CCD0D6"/>
<path d="M20.404 15.556H10.624V14.752H15.004V12.724H11.848V9.4H18.232V7.72H11.824V6.916H19.192V10.192H12.82V11.932H19.444V12.724H16V14.752H20.404V15.556ZM21.7311 8.068V7.264H28.6551V7.276H29.1111V8.344C29.1111 9.712 29.0991 11.26 28.6911 13.588L27.7071 13.48C28.1391 11.284 28.1391 9.676 28.1391 8.344V8.068H21.7311ZM30.4191 15.316H20.6871V14.5H30.4191V15.316ZM38.9941 11.248V16.888H38.0101V6.136H38.9941V10.42H40.7701V11.248H38.9941ZM33.5821 6.952C35.1661 6.952 36.2821 8.416 36.2821 10.708C36.2821 13 35.1661 14.464 33.5821 14.464C31.9861 14.464 30.8701 13 30.8701 10.708C30.8701 8.416 31.9861 6.952 33.5821 6.952ZM33.5821 13.588C34.6021 13.588 35.3461 12.46 35.3461 10.708C35.3461 8.968 34.6021 7.84 33.5821 7.84C32.5381 7.84 31.8061 8.968 31.8061 10.708C31.8061 12.46 32.5381 13.588 33.5821 13.588ZM45.6132 10.228C43.2732 10.228 41.8332 9.508 41.8332 8.248C41.8332 7 43.2732 6.28 45.6132 6.28C47.9532 6.28 49.3932 7 49.3932 8.248C49.3932 9.508 47.9532 10.228 45.6132 10.228ZM45.6132 7.036C43.8732 7.036 42.8412 7.48 42.8412 8.248C42.8412 9.016 43.8732 9.46 45.6132 9.46C47.3532 9.46 48.3852 9.016 48.3852 8.248C48.3852 7.48 47.3532 7.036 45.6132 7.036ZM50.5092 11.848H46.0932V13.036H45.1212V11.848H40.7532V11.044H50.5092V11.848ZM46.1172 13.864C46.1172 15.052 47.7732 15.904 49.7412 16.096L49.4172 16.852C47.7492 16.66 46.2252 16.012 45.6132 14.992C44.9772 15.988 43.4412 16.66 41.7852 16.852L41.4612 16.096C43.4172 15.904 45.0972 15.004 45.0972 13.864V13.528H46.1172V13.864Z" fill="white"/>
</svg>
