<svg width="20" height="20" viewBox="0 0 20 20" fill="none" xmlns="http://www.w3.org/2000/svg">
<path d="M8.28567 1.67703C8.68671 1.62977 9.0908 1.73571 9.41707 1.97365C9.74334 2.21159 9.96771 2.56397 10.0453 2.96026L10.0663 3.10107L10.0706 3.18875V9.09062C10.0706 9.29712 10.1464 9.49644 10.2836 9.65076C10.4209 9.80508 10.61 9.90368 10.815 9.92784L10.9137 9.93374H16.6469C17.0941 9.93374 17.5231 10.1114 17.8393 10.4276C18.1555 10.7439 18.3332 11.1728 18.3332 11.62C18.3331 11.6841 18.3258 11.7481 18.3113 11.8105C17.9738 13.2663 17.2556 14.6063 16.23 15.6932C15.2044 16.7801 13.9084 17.5749 12.4746 17.9961C11.0408 18.4174 9.52085 18.4501 8.07032 18.0907C6.61979 17.7314 5.29083 16.9929 4.21954 15.9511C3.14824 14.9092 2.37311 13.6013 1.97352 12.1614C1.57392 10.7214 1.56423 9.2011 1.94543 7.75616C2.32663 6.31121 3.08502 4.99355 4.14294 3.9381C5.20086 2.88266 6.5203 2.12735 7.96613 1.74954L8.19377 1.69305L8.28651 1.67619L8.28567 1.67703Z" fill="#4876EF"/>
<path d="M11.7568 2.76701V7.40419C11.7568 7.6278 11.8457 7.84225 12.0038 8.00037C12.1619 8.15849 12.3763 8.24732 12.6 8.24732H17.2371C17.3719 8.24728 17.5047 8.21494 17.6244 8.153C17.7441 8.09107 17.8472 8.00135 17.925 7.89136C18.0029 7.78137 18.0533 7.65432 18.0719 7.52085C18.0906 7.38739 18.0769 7.25139 18.0322 7.12428C17.6135 5.93491 16.9333 4.85461 16.0417 3.96293C15.1502 3.07125 14.07 2.39089 12.8807 1.97195C12.7536 1.92704 12.6175 1.91329 12.4839 1.93186C12.3503 1.95042 12.2231 2.00076 12.113 2.07865C12.0029 2.15654 11.9131 2.2597 11.8511 2.37947C11.7892 2.49925 11.7568 2.63215 11.7568 2.76701Z" fill="#4876EF"/>
</svg>
