<svg fill="#4876EF" version="1.1" id="Capa_1" xmlns="http://www.w3.org/2000/svg" xmlns:xlink="http://www.w3.org/1999/xlink" width="24px" height="24px" viewBox="0 0 295.784 295.784" xml:space="preserve"><g id="SVGRepo_bgCarrier" stroke-width="0"></g><g id="SVGRepo_tracerCarrier" stroke-linecap="round" stroke-linejoin="round"></g><g id="SVGRepo_iconCarrier"> <g> <g> <path d="M240.109,36.813h-0.14c3.376-2.322,2.584-5.222-2.408-7.003L158.093,1.527c-5.898-2.104-15.426-2.022-21.285,0.179 L55.087,32.451c-5.859,2.211-5.875,5.815-0.037,8.07L84.269,51.77v8.109c0,4.797,2.757,10.079,6.628,13.414 c-1.771,3.601-3.12,7.785-4.153,11.702c-2.296,8.687-3.436,19.656,5.445,22.287c0,0,16.104-3.689,25.637-12.185 c3.257-2.902,7.425-3.505,10.993-1.002c9.926,6.973,33.034,18.403,75.924,16.15c0,0,2.387-14.338,1.486-28.883 c-0.223-3.653-0.958-7.156-2.051-10.514c2.579-3.177,4.277-7.216,4.277-10.965v-9.512l27.517-11.602v48.581l-4.826,16.096h13.955 l-4.997-16.267V36.813H240.109z"></path> <path d="M65.715,233.124c-0.08,0.762-0.267,1.512-0.334,2.253c-0.58,6.027,1.186,11.744,4.979,16.072 c3.392,3.884,7.353,6.276,11.653,7.524c2.237,0.693,4.572,1.046,6.962,1.134v25.072c0,5.852,4.751,10.604,10.605,10.604h94.677 c5.851,0,10.604-4.753,10.604-10.604v-25.108c0.409,0.021,0.828,0.099,1.228,0.099c7.259,0,13.996-2.486,19.335-8.586 c3.79-4.329,5.556-10.035,4.976-16.067l-0.435-0.047c-0.072-0.834-0.254-1.595-0.398-2.341 c-7.565-44.562-57.12-67.419-60.532-68.941c19.594-7.818,33.74-26.336,35.278-48.335c-3.589,0.168-7.161,0.285-10.615,0.285 c-37.386,0-58.256-10.748-67.378-17.153c-1.929-1.357-4.108-1.046-6.092,0.714c-10.175,9.062-26.688,12.928-27.387,13.093 l-0.826,0.178c0.45,23.535,15.322,43.48,36.141,51.45C121.655,167.279,73.083,190.068,65.715,233.124z M104.225,257.456 c8.859-3.133,17.683-8.652,25.064-14.835c5.626-4.718,6.364-13.086,1.654-18.719c-4.709-5.635-13.095-6.391-18.739-1.688 c-2.449,2.045-5.222,3.981-7.979,5.675v-28.003l15.669,6.758c0.005,0,0.01-0.016,0.016-0.016l28.956,12.5l44.635-19.273v28.936 c-3.236-1.89-6.586-4.174-9.491-6.587c-5.634-4.691-14.022-3.936-18.734,1.688c-4.702,5.639-3.972,14.012,1.651,18.724 c7.799,6.535,17.207,12.309,26.569,15.328v8.725l-44.636,17.461l-44.64-17.461v-9.212H104.225z"></path> </g> </g> </g></svg>