<svg width="138" height="26" viewBox="0 0 138 26" fill="none" xmlns="http://www.w3.org/2000/svg">
<g filter="url(#filter0_i_465_3601)">
<rect width="138" height="26" rx="13" fill="white"/>
</g>
<rect x="0.5" y="0.5" width="137" height="25" rx="12.5" stroke="#4876EF"/>
<mask id="mask0_465_3601" style="mask-type:alpha" maskUnits="userSpaceOnUse" x="0" y="0" width="138" height="26">
<rect x="0.5" y="0.5" width="137" height="25" rx="12.5" fill="white" stroke="#4876EF"/>
</mask>
<g mask="url(#mask0_465_3601)">
<g filter="url(#filter1_d_465_3601)">
<rect width="46" height="26" rx="13" fill="url(#paint0_linear_465_3601)"/>
</g>
</g>
<path d="M12.3883 14.9H9.82832L9.19832 17H8.01832L10.4583 9.64H11.7983L14.2383 17H13.0083L12.3883 14.9ZM12.1083 13.99L11.8183 13C11.5683 12.2 11.3483 11.39 11.1183 10.55H11.0783C10.8683 11.39 10.6383 12.2 10.3983 13L10.0983 13.99H12.1083ZM14.719 9.64H16.629C18.939 9.64 20.179 10.85 20.179 13.29C20.179 15.68 18.889 17 16.689 17H14.719V9.64ZM16.549 16.05C18.159 16.05 18.979 15.17 18.979 13.29C18.979 11.44 18.139 10.58 16.549 10.58H15.879V16.05H16.549ZM21.2112 9.64H22.5412L23.8912 13.36C24.0612 13.85 24.2112 14.34 24.3812 14.85H24.4312C24.6012 14.34 24.7412 13.85 24.9112 13.36L26.2412 9.64H27.5812V17H26.5012V13.36C26.5012 12.7 26.6012 11.75 26.6512 11.08H26.6112L26.0212 12.78L24.7412 16.29H24.0212L22.7312 12.78L22.1512 11.08H22.1112C22.1612 11.75 22.2512 12.7 22.2512 13.36V17H21.2112V9.64ZM29.012 9.64H30.172V17H29.012V9.64ZM31.5979 9.64H32.7879L35.2279 13.96L35.9979 15.52H36.0479C35.9779 14.76 35.8979 13.87 35.8979 13.07V9.64H36.9979V17H35.8079L33.3679 12.66L32.5979 11.12H32.5479C32.6179 11.88 32.6979 12.73 32.6979 13.53V17H31.5979V9.64Z" fill="white"/>
<path d="M57.168 8.64H58.328V15.02H61.438V16H57.168V8.64ZM64.7824 16.13C62.9324 16.13 61.5124 14.74 61.5124 12.34C61.5124 9.93 62.9624 8.5 64.8324 8.5C65.7524 8.5 66.4724 8.94 66.9224 9.43L66.2924 10.17C65.9024 9.78 65.4524 9.51 64.8524 9.51C63.5724 9.51 62.7024 10.58 62.7024 12.3C62.7024 14.05 63.5224 15.12 64.8224 15.12C65.5024 15.12 66.0124 14.82 66.4524 14.34L67.0724 15.07C66.4724 15.75 65.7424 16.13 64.7824 16.13ZM67.8772 8.64H69.2072L70.5572 12.36C70.7272 12.85 70.8772 13.34 71.0472 13.85H71.0972C71.2672 13.34 71.4072 12.85 71.5772 12.36L72.9072 8.64H74.2472V16H73.1672V12.36C73.1672 11.7 73.2672 10.75 73.3172 10.08H73.2772L72.6872 11.78L71.4072 15.29H70.6872L69.3972 11.78L68.8172 10.08H68.7772C68.8272 10.75 68.9172 11.7 68.9172 12.36V16H67.8772V8.64ZM77.768 16.13C76.758 16.13 75.828 15.73 75.148 15.05L75.828 14.25C76.358 14.78 77.068 15.12 77.788 15.12C78.678 15.12 79.178 14.72 79.178 14.08C79.178 13.41 78.688 13.19 77.998 12.9L76.978 12.46C76.268 12.17 75.478 11.59 75.478 10.53C75.478 9.37 76.498 8.5 77.898 8.5C78.778 8.5 79.568 8.86 80.128 9.43L79.518 10.17C79.048 9.76 78.548 9.51 77.898 9.51C77.138 9.51 76.658 9.86 76.658 10.46C76.658 11.09 77.258 11.33 77.848 11.57L78.858 12C79.738 12.37 80.358 12.91 80.358 13.99C80.358 15.16 79.368 16.13 77.768 16.13Z" fill="#4876EF"/>
<path d="M107.432 8.64H108.592V15.02H111.702V16H107.432V8.64ZM116.528 16L114.858 13.03H113.668V16H112.508V8.64H114.918C116.438 8.64 117.578 9.18 117.578 10.77C117.578 11.93 116.968 12.59 116.038 12.88L117.838 16H116.528ZM113.668 12.1H114.778C115.858 12.1 116.428 11.66 116.428 10.77C116.428 9.88 115.858 9.57 114.778 9.57H113.668V12.1ZM120.504 16.13C119.494 16.13 118.564 15.73 117.884 15.05L118.564 14.25C119.094 14.78 119.804 15.12 120.524 15.12C121.414 15.12 121.914 14.72 121.914 14.08C121.914 13.41 121.424 13.19 120.734 12.9L119.714 12.46C119.004 12.17 118.214 11.59 118.214 10.53C118.214 9.37 119.234 8.5 120.634 8.5C121.514 8.5 122.304 8.86 122.864 9.43L122.254 10.17C121.784 9.76 121.284 9.51 120.634 9.51C119.874 9.51 119.394 9.86 119.394 10.46C119.394 11.09 119.994 11.33 120.584 11.57L121.594 12C122.474 12.37 123.094 12.91 123.094 13.99C123.094 15.16 122.104 16.13 120.504 16.13Z" fill="#4876EF"/>
<defs>
<filter id="filter0_i_465_3601" x="0" y="0" width="138" height="30" filterUnits="userSpaceOnUse" color-interpolation-filters="sRGB">
<feFlood flood-opacity="0" result="BackgroundImageFix"/>
<feBlend mode="normal" in="SourceGraphic" in2="BackgroundImageFix" result="shape"/>
<feColorMatrix in="SourceAlpha" type="matrix" values="0 0 0 0 0 0 0 0 0 0 0 0 0 0 0 0 0 0 127 0" result="hardAlpha"/>
<feOffset dy="4"/>
<feGaussianBlur stdDeviation="2"/>
<feComposite in2="hardAlpha" operator="arithmetic" k2="-1" k3="1"/>
<feColorMatrix type="matrix" values="0 0 0 0 0 0 0 0 0 0 0 0 0 0 0 0 0 0 0.06 0"/>
<feBlend mode="normal" in2="shape" result="effect1_innerShadow_465_3601"/>
</filter>
<filter id="filter1_d_465_3601" x="-4" y="0" width="54" height="34" filterUnits="userSpaceOnUse" color-interpolation-filters="sRGB">
<feFlood flood-opacity="0" result="BackgroundImageFix"/>
<feColorMatrix in="SourceAlpha" type="matrix" values="0 0 0 0 0 0 0 0 0 0 0 0 0 0 0 0 0 0 127 0" result="hardAlpha"/>
<feOffset dy="4"/>
<feGaussianBlur stdDeviation="2"/>
<feComposite in2="hardAlpha" operator="out"/>
<feColorMatrix type="matrix" values="0 0 0 0 0 0 0 0 0 0 0 0 0 0 0 0 0 0 0.25 0"/>
<feBlend mode="normal" in2="BackgroundImageFix" result="effect1_dropShadow_465_3601"/>
<feBlend mode="normal" in="SourceGraphic" in2="effect1_dropShadow_465_3601" result="shape"/>
</filter>
<linearGradient id="paint0_linear_465_3601" x1="24" y1="27" x2="26.0596" y2="8.22595" gradientUnits="userSpaceOnUse">
<stop stop-color="#4876EF"/>
<stop offset="1" stop-color="#2156E1"/>
</linearGradient>
</defs>
</svg>
