<svg width="24" height="24" viewBox="0 0 24 24" fill="none" xmlns="http://www.w3.org/2000/svg">
<path fill-rule="evenodd" clip-rule="evenodd" d="M3.69613 3.9266C4.92314 2.69959 6.75923 2.23047 9.12594 2.23047H10.9649C11.3457 2.23047 11.6545 2.53922 11.6545 2.92008C11.6545 3.30094 11.3457 3.60968 10.9649 3.60968H9.12594C6.89526 3.60968 5.51319 4.06004 4.67138 4.90185C3.82957 5.74366 3.37921 7.12573 3.37921 9.35641V14.8733C3.37921 17.1039 3.82957 18.486 4.67138 19.3278C5.51319 20.1696 6.89526 20.62 9.12594 20.62H14.6428C16.8735 20.62 18.2555 20.1696 19.0974 19.3278C19.9392 18.486 20.3895 17.1039 20.3895 14.8733V13.0343C20.3895 12.6535 20.6983 12.3447 21.0791 12.3447C21.46 12.3447 21.7687 12.6535 21.7687 13.0343V14.8733C21.7687 17.24 21.2996 19.0761 20.0726 20.3031C18.8456 21.5301 17.0095 21.9992 14.6428 21.9992H9.12594C6.75923 21.9992 4.92314 21.5301 3.69613 20.3031C2.46912 19.0761 2 17.24 2 14.8733V9.35641C2 6.9897 2.46912 5.15361 3.69613 3.9266Z" fill="#4876EF"/>
<path fill-rule="evenodd" clip-rule="evenodd" d="M17.5822 2.01376C18.6059 1.91328 19.6209 2.36284 20.629 3.37098C21.6371 4.37912 22.0867 5.39404 21.9862 6.41773C21.8893 7.40525 21.2937 8.22368 20.629 8.88839L13.3835 16.1339C13.3743 16.1431 13.3647 16.1522 13.3549 16.1609C12.923 16.5461 12.3889 16.8127 11.8201 16.9288C11.8067 16.9315 11.7932 16.9339 11.7797 16.9358L9.04304 17.3267C8.76351 17.39 8.46485 17.3877 8.1867 17.3198C7.11779 17.0787 6.45284 16.0283 6.67212 14.9647L7.06419 12.2202C7.06548 12.2112 7.06695 12.2022 7.0686 12.1932C7.17504 11.6137 7.44618 11.0725 7.84592 10.6375C7.85249 10.6303 7.8592 10.6233 7.86607 10.6165L15.1115 3.37098C15.7763 2.70627 16.5947 2.1107 17.5822 2.01376ZM17.717 3.38638C17.2057 3.43656 16.6726 3.76046 16.0868 4.34624L8.85247 11.5806C8.63478 11.8211 8.48727 12.1172 8.42744 12.43L8.03417 15.1829C8.03172 15.2001 8.02862 15.2171 8.02489 15.234C7.94985 15.5739 8.16082 15.9017 8.49316 15.975L8.51174 15.9794C8.58583 15.9979 8.67322 15.9979 8.74731 15.9794C8.7703 15.9737 8.79358 15.9691 8.81705 15.9658L11.5628 15.5736C11.8821 15.5051 12.1818 15.3548 12.4233 15.1436L19.6538 7.91314C20.2395 7.32736 20.5634 6.7942 20.6136 6.28299C20.6602 5.80797 20.4846 5.17705 19.6538 4.34624C18.8229 3.51543 18.192 3.33975 17.717 3.38638Z" fill="#4876EF"/>
<path fill-rule="evenodd" clip-rule="evenodd" d="M14.3738 4.23281C14.7405 4.13 15.1211 4.34395 15.2239 4.71067C15.775 6.67644 17.3225 8.22388 19.2883 8.77496C19.655 8.87777 19.8689 9.25839 19.7661 9.62512C19.6633 9.99184 19.2827 10.2058 18.916 10.103C16.4867 9.42196 14.5769 7.51229 13.8959 5.08296C13.7931 4.71624 14.007 4.33561 14.3738 4.23281Z" fill="#4876EF"/>
</svg>