<svg width="61" height="19" viewBox="0 0 61 19" fill="none" xmlns="http://www.w3.org/2000/svg">
<g id="AIDT">
<path id="Vector" d="M48.1754 5.27777C47.5815 4.80864 47.2845 4.07787 47.2845 3.08547C47.2845 2.07502 47.599 1.30817 48.2278 0.784899C48.8742 0.261633 49.7476 0 50.8481 0C51.5468 0 52.7259 0.126306 54.3854 0.378917L56.1672 0.649572C56.7611 0.721747 57.3638 0.757834 57.9752 0.757834C58.604 0.757834 59.1281 0.622506 59.5473 0.351852C60.1762 0.929249 60.4906 1.63295 60.4906 2.46296C60.4906 3.29297 60.1325 4.00569 59.4163 4.60114C58.6827 5.23266 57.8442 5.54843 56.9009 5.54843C56.4467 5.54843 55.8528 5.48527 55.1191 5.35897C54.2632 8.13769 53.8352 10.4924 53.8352 12.4231C53.8352 14.3537 54.3068 15.8243 55.2501 16.8347C54.8134 17.6467 54.2719 18.2061 53.6256 18.5128C52.9792 18.8376 52.167 19 51.1887 19C50.228 19 49.4419 18.7293 48.8305 18.188C48.2366 17.6287 47.9396 16.7806 47.9396 15.6439C47.9396 14.3267 48.289 12.5855 48.9877 10.4202C49.6864 8.27302 50.5599 6.37844 51.608 4.73646C51.1014 4.68233 50.5861 4.65527 50.062 4.65527C48.979 4.65527 48.3501 4.86277 48.1754 5.27777Z" fill="#5783F6"/>
<path id="Vector_2" d="M44.7379 7.22634C44.7379 14.9129 40.7027 18.7562 32.6323 18.7562C31.3396 18.7562 29.6277 18.5938 27.4966 18.2691L30.4313 2.27335C30.571 1.55161 30.6846 0.983233 30.7719 0.568229C33.4271 0.369748 35.3399 0.270508 36.5103 0.270508C37.6981 0.270508 38.8336 0.396813 39.9166 0.649425C40.9996 0.902036 41.8993 1.30802 42.6155 1.86737C44.0304 2.96804 44.7379 4.75436 44.7379 7.22634ZM39.3401 6.22492C39.3401 3.53641 38.4056 2.19216 36.5365 2.19216H36.2744C36.1871 2.19216 36.0998 2.20118 36.0124 2.21922L33.3135 16.7534C33.3834 16.7895 33.4533 16.8075 33.5232 16.8075H33.7328C34.3791 16.8075 35.0342 16.6 35.698 16.185C36.3792 15.77 36.9819 15.1385 37.506 14.2904C38.7287 12.3237 39.3401 9.63517 39.3401 6.22492Z" fill="#5783F6"/>
<path id="Vector_3" d="M18.0532 18.4589L21.3809 0.595703H27.1455L23.7654 18.4589H18.0532Z" fill="#5783F6"/>
<path id="Vector_4" d="M13.9284 19.0002C11.6925 19.0002 10.4697 17.3583 10.26 14.0743H5.75321C5.40384 14.9043 5.10688 15.6802 4.86232 16.402L4.18105 18.4589H0.512695L8.7665 0.595703H14.4L15.5006 13.7495C15.6752 15.6441 16.1119 16.8711 16.8107 17.4304C16.3041 18.477 15.3433 19.0002 13.9284 19.0002ZM6.56548 12.0985H10.1814L9.86701 5.14271V4.41194L8.00662 8.66122L6.56548 12.0985Z" fill="#5783F6"/>
</g>
</svg>
