<svg width="119" height="18" viewBox="0 0 119 18" fill="none" xmlns="http://www.w3.org/2000/svg">
<g id="&#237;&#134;&#181;&#237;&#149;&#169;&#234;&#180;&#128;&#235;&#166;&#172;&#236;&#139;&#156;&#236;&#138;&#164;&#237;&#133;&#156;">
<path id="Vector" d="M118.323 10.5853H115.948V0.154297H118.323V10.5853ZM110.799 6.3483V4.3343H112.509V0.401297H114.846V10.4523H112.509V6.3483H110.799ZM111.502 9.5213C109.526 9.8823 107.873 9.9203 105.289 9.9203H104.092V1.1803H110.666V3.1563H106.505V4.5433H110.058V6.4433H106.505V7.9443C108.329 7.9443 109.754 7.8493 111.293 7.5453L111.502 9.5213ZM118.323 11.2693V17.4253H106.467V11.2693H118.323ZM115.872 15.4683V13.2263H108.937V15.4683H115.872Z" fill="black"/>
<path id="Vector_2" d="M100.541 10.4711C97.4816 9.86313 95.2776 8.17213 94.1376 5.94913C92.9976 8.17213 90.8126 9.88213 87.7536 10.4711L86.6896 8.38113C90.6416 7.71613 92.8076 4.90413 92.8076 2.41513V1.16113H95.4866V2.41513C95.4866 4.94213 97.6526 7.71613 101.605 8.38113L100.541 10.4711ZM102.156 15.5061H86.3096V13.4731H102.156V15.5061Z" fill="black"/>
<path id="Vector_3" d="M83.708 17.6722H81.2V0.116211H83.708V17.6722ZM75.994 4.03021C75.994 7.27921 77.381 10.4712 80.345 11.7442L78.92 13.7772C76.868 12.8652 75.557 11.1362 74.778 8.98921C73.999 11.3642 72.631 13.2072 70.484 14.1952L68.983 12.1242C72.042 10.7942 73.486 7.45021 73.486 4.03021V1.48421H75.994V4.03021Z" fill="black"/>
<path id="Vector_4" d="M66.6665 17.6722H64.1585V0.116211H66.6665V17.6722ZM55.6085 11.5352C58.2685 11.5352 60.4915 11.3642 62.9425 10.9652L63.2085 12.9982C60.3205 13.5112 57.8125 13.6062 54.6205 13.6062H53.0435V6.40521H58.7245V3.61221H53.0245V1.61721H61.2895V8.38121H55.6085V11.5352Z" fill="black"/>
<path id="Vector_5" d="M51.069 7.52621H48.979V13.2262H46.471V0.116211H48.979V5.45521H51.069V7.52621ZM41.911 7.35521C42.196 5.68321 42.272 4.46721 42.291 3.40321H35.774V1.40821H44.761V2.49121C44.761 3.70721 44.761 5.41721 44.362 7.64021L41.911 7.35521ZM45.673 10.1292C42.082 10.7942 37.978 10.8892 34.995 10.8892L34.767 8.89421C35.736 8.89421 36.819 8.89421 37.959 8.87521V5.47421H40.41V8.78021C42.158 8.70421 43.849 8.57121 45.521 8.34321L45.673 10.1292ZM49.53 15.3352V17.3302H37.313V12.0672H39.821V15.3352H49.53Z" fill="black"/>
<path id="Vector_6" d="M17.8965 3.63095V1.67395H21.7915V0.00195312H24.3185V1.67395H28.2325L28.2135 3.63095H17.8965ZM31.6905 6.38595V10.376H29.1825V0.134954H31.6905V4.33395H34.0085V6.38595H31.6905ZM27.3585 7.20295C27.3585 9.02695 25.5915 10.3 23.0645 10.3C20.5375 10.3 18.7705 9.02695 18.7705 7.20295C18.7705 5.32195 20.5375 4.10595 23.0645 4.10595C25.5915 4.10595 27.3585 5.32195 27.3585 7.20295ZM21.1645 7.20295C21.1645 8.03895 21.9245 8.47595 23.0645 8.47595C24.2045 8.47595 24.9645 8.03895 24.9645 7.20295C24.9645 6.36695 24.2045 5.92995 23.0645 5.92995C21.9245 5.92995 21.1645 6.36695 21.1645 7.20295ZM31.6905 11.041V17.444H20.3095V11.041H22.7985V12.371H29.2015V11.041H31.6905ZM22.7985 14.271V15.487H29.2015V14.271H22.7985Z" fill="black"/>
<path id="Vector_7" d="M16.625 11.1168H0.797974V9.15982H7.44797V8.07682H2.77397V0.59082H14.82V2.49082H5.26297V3.40282H14.421V5.22682H5.26297V6.17682H14.953V8.07682H9.95597V9.15982H16.625V11.1168ZM8.68297 11.8958C12.692 11.8958 14.763 12.8648 14.763 14.7648C14.763 16.6648 12.692 17.6338 8.68297 17.6338C4.71197 17.6338 2.62197 16.6648 2.62197 14.7648C2.62197 12.8648 4.71197 11.8958 8.68297 11.8958ZM8.68297 15.8098C11.134 15.8098 12.236 15.5058 12.236 14.7648C12.236 14.0238 11.134 13.7388 8.68297 13.7388C6.23197 13.7388 5.14897 14.0238 5.14897 14.7648C5.14897 15.5058 6.23197 15.8098 8.68297 15.8098Z" fill="black"/>
</g>
</svg>
